<svg width="32" height="18" viewBox="0 0 32 18" fill="none" xmlns="http://www.w3.org/2000/svg">
<path d="M14.2225 0.196527V4.37237H6.26379L5.77252 6.63223L5.82164 6.68136C6.87789 5.89532 8.27802 5.67425 9.55534 5.67425C12.6012 5.67425 15.1313 7.44284 15.1313 11.4713C15.1313 14.9348 12.4047 17.4894 7.46742 17.4894C1.15453 17.4894 3.21944e-05 13.6083 0.147415 11.9134H4.98648C5.08473 12.3556 5.33037 12.7732 5.67426 13.0434C6.16554 13.4364 6.85332 13.6083 7.6148 13.6083C9.0395 13.6083 10.2186 12.6749 10.2186 11.3239C10.2186 9.82552 9.23601 8.94123 7.76218 8.94123C6.60769 8.94123 5.79708 9.26056 5.28124 10.0466H0.712381L2.48097 0.196527H14.2225ZM21.7628 8.74472C21.7628 10.5379 21.861 13.7312 24.342 13.7312C26.8475 13.7312 26.9703 10.5624 26.9703 8.74472C26.9703 6.97613 26.8475 3.75827 24.3911 3.75827C21.861 3.75827 21.7628 6.90244 21.7628 8.74472ZM17.0956 8.74472C17.0956 2.13706 21.2715 1.60856e-05 24.342 1.60856e-05C27.4616 1.60856e-05 31.6374 2.13706 31.6374 8.74472C31.6374 15.3524 27.4616 17.4894 24.3665 17.4894C21.2715 17.4894 17.0956 15.3524 17.0956 8.74472Z" fill="#C3C2C3"/>
</svg>
