<svg width="55" height="16" viewBox="0 0 55 16" fill="none" xmlns="http://www.w3.org/2000/svg">
<rect width="54.5861" height="15.0112" fill="#131317"/>
<path d="M14.5622 7.03571C14.5622 7.88345 14.4071 8.6123 14.097 9.22226C13.7868 9.82964 13.3617 10.2974 12.8215 10.6257C12.2839 10.9513 11.6726 11.1142 10.9877 11.1142C10.3002 11.1142 9.6864 10.9513 9.14622 10.6257C8.60863 10.2974 8.18476 9.82834 7.87461 9.21838C7.56446 8.60843 7.40939 7.88087 7.40939 7.03571C7.40939 6.18797 7.56446 5.46042 7.87461 4.85304C8.18476 4.24308 8.60863 3.77528 9.14622 3.44962C9.6864 3.12138 10.3002 2.95726 10.9877 2.95726C11.6726 2.95726 12.2839 3.12138 12.8215 3.44962C13.3617 3.77528 13.7868 4.24308 14.097 4.85304C14.4071 5.46042 14.5622 6.18797 14.5622 7.03571ZM13.3759 7.03571C13.3759 6.38957 13.2712 5.84552 13.0618 5.40356C12.8551 4.95901 12.5708 4.62302 12.2089 4.39557C11.8497 4.16555 11.4426 4.05053 10.9877 4.05053C10.5303 4.05053 10.1219 4.16555 9.76264 4.39557C9.40339 4.62302 9.11908 4.95901 8.90973 5.40356C8.70297 5.84552 8.59958 6.38957 8.59958 7.03571C8.59958 7.68186 8.70297 8.2272 8.90973 8.67175C9.11908 9.11371 9.40339 9.4497 9.76264 9.67973C10.1219 9.90717 10.5303 10.0209 10.9877 10.0209C11.4426 10.0209 11.8497 9.90717 12.2089 9.67973C12.5708 9.4497 12.8551 9.11371 13.0618 8.67175C13.2712 8.2272 13.3759 7.68186 13.3759 7.03571ZM19.9985 7.52807V8.53218H16.773V7.52807H19.9985ZM17.0986 5.05076V11.0056H15.9627V5.05076H17.0986ZM20.8088 5.05076V11.0056H19.6767V5.05076H20.8088ZM21.8904 11.0056L21.8865 10.0015H22.0998C22.2652 10.0015 22.4035 9.96662 22.5146 9.89683C22.6283 9.82447 22.7214 9.70299 22.7937 9.53241C22.8661 9.36183 22.9217 9.12663 22.9604 8.82682C22.9992 8.52443 23.0276 8.14449 23.0457 7.68703L23.1504 5.05076H27.3064V11.0056H26.1705V6.05099H24.2243L24.1312 8.07471C24.108 8.56578 24.0576 8.99482 23.98 9.36183C23.9051 9.72884 23.7952 10.0351 23.6505 10.2806C23.5058 10.5236 23.3197 10.7058 23.0922 10.8273C22.8648 10.9462 22.5883 11.0056 22.2626 11.0056H21.8904ZM30.5852 11.1374C30.2079 11.1374 29.8667 11.0676 29.5617 10.9281C29.2568 10.7859 29.0151 10.5805 28.8368 10.3117C28.661 10.0429 28.5732 9.71333 28.5732 9.32306C28.5732 8.98707 28.6378 8.71052 28.767 8.49341C28.8962 8.27631 29.0707 8.10443 29.2904 7.97779C29.5101 7.85115 29.7556 7.75552 30.027 7.6909C30.2984 7.62629 30.5749 7.57718 30.8566 7.54358C31.2133 7.50223 31.5028 7.46863 31.725 7.44278C31.9473 7.41435 32.1088 7.36912 32.2096 7.30709C32.3104 7.24506 32.3608 7.14427 32.3608 7.0047V6.97756C32.3608 6.63898 32.2652 6.37665 32.074 6.19056C31.8853 6.00447 31.6036 5.91143 31.2288 5.91143C30.8385 5.91143 30.531 5.99801 30.3061 6.17117C30.0838 6.34176 29.9301 6.53172 29.8448 6.74107L28.7554 6.49295C28.8846 6.13111 29.0733 5.83906 29.3214 5.61678C29.5721 5.39193 29.8603 5.2291 30.1859 5.1283C30.5116 5.02492 30.854 4.97323 31.2133 4.97323C31.4511 4.97323 31.7031 5.00166 31.9693 5.05852C32.2381 5.11279 32.4888 5.21359 32.7214 5.36091C32.9566 5.50823 33.1491 5.71887 33.299 5.99284C33.4489 6.26422 33.5239 6.61701 33.5239 7.05122V11.0056H32.3919V10.1915H32.3453C32.2704 10.3414 32.158 10.4887 32.008 10.6334C31.8581 10.7782 31.6656 10.8984 31.4304 10.994C31.1952 11.0896 30.9135 11.1374 30.5852 11.1374ZM30.8372 10.207C31.1577 10.207 31.4317 10.1437 31.6591 10.017C31.8892 9.89037 32.0636 9.72496 32.1825 9.52078C32.304 9.31401 32.3647 9.09303 32.3647 8.85784V8.09022C32.3234 8.13157 32.2432 8.17034 32.1244 8.20652C32.008 8.24012 31.8749 8.26985 31.725 8.29569C31.5751 8.31895 31.4291 8.34092 31.287 8.3616C31.1448 8.37969 31.0259 8.3952 30.9303 8.40812C30.7054 8.43655 30.4999 8.48437 30.3139 8.55156C30.1304 8.61876 29.983 8.71569 29.8719 8.84233C29.7633 8.96639 29.7091 9.1318 29.7091 9.33857C29.7091 9.62545 29.815 9.84256 30.027 9.98988C30.2389 10.1346 30.509 10.207 30.8372 10.207ZM36.2038 9.38121L38.8284 5.05076H40.0768V11.0056H38.9408V6.67129L36.3278 11.0056H35.0679V5.05076H36.2038V9.38121ZM38.3322 3.0348H39.2859C39.2859 3.47159 39.1308 3.82697 38.8207 4.10093C38.5131 4.37231 38.097 4.508 37.5723 4.508C37.0502 4.508 36.6354 4.37231 36.3278 4.10093C36.0203 3.82697 35.8665 3.47159 35.8665 3.0348H36.8163C36.8163 3.22864 36.8732 3.40051 36.9869 3.55042C37.1006 3.69774 37.2958 3.7714 37.5723 3.7714C37.8437 3.7714 38.0375 3.69774 38.1538 3.55042C38.2727 3.4031 38.3322 3.23122 38.3322 3.0348ZM45.6711 7.52807V8.53218H42.4455V7.52807H45.6711ZM42.7712 5.05076V11.0056H41.6353V5.05076H42.7712ZM46.4813 5.05076V11.0056H45.3493V5.05076H46.4813Z" fill="#C3C2C3"/>
</svg>
