<svg width="184" height="40" viewBox="0 0 184 40" fill="none" xmlns="http://www.w3.org/2000/svg">
<rect width="184" height="40" rx="5" fill="#818081"/>
<path fill-rule="evenodd" clip-rule="evenodd" d="M19.7683 11.9727C19.6423 12.114 19.5763 12.2277 19.6208 12.223C19.6669 12.22 19.65 12.3214 19.5824 12.4473C19.5164 12.5748 19.4089 12.6454 19.3459 12.607C19.2829 12.5686 19.0571 12.8927 18.8467 13.3259C18.5318 13.971 18.4627 14.3381 18.4673 15.3549C18.4704 16.3486 18.5426 16.7311 18.8298 17.2856C19.0264 17.665 19.3705 18.1734 19.5932 18.413C19.8159 18.6526 20.12 18.9106 20.2675 18.9889C20.4149 19.0657 20.5055 19.0765 20.4702 19.0135C20.4333 18.9505 20.4671 18.7939 20.5439 18.6679C20.6637 18.4729 20.6852 18.4775 20.6868 18.7063C20.6883 18.8553 20.8788 19.0519 21.1122 19.1456C21.3442 19.2378 21.742 19.333 21.9954 19.3545C22.2488 19.376 22.6467 19.3345 22.8786 19.2623C23.1458 19.1779 23.301 19.1856 23.301 19.2823C23.301 19.3714 23.4807 19.3468 23.7234 19.2255C23.9553 19.1088 24.3823 18.7463 24.6711 18.4191C24.9598 18.0904 25.3223 17.5467 25.4744 17.2088C25.671 16.7726 25.7524 16.215 25.7539 15.2888C25.7554 14.2213 25.6863 13.8297 25.3714 13.1385C25.1595 12.6731 24.9352 12.3444 24.8738 12.4043C24.8108 12.4657 24.5543 12.3628 24.3024 12.1739C24.0521 11.9865 23.9138 11.9328 23.9952 12.0556C24.1089 12.2246 24.0889 12.2568 23.9154 12.1908C23.7894 12.1416 23.7019 12.0234 23.7234 11.9297C23.7449 11.8345 23.6619 11.773 23.5406 11.7945C23.4192 11.816 23.2303 11.9189 23.1182 12.0249C22.9554 12.18 22.9907 12.2 23.301 12.1278C23.6757 12.0433 23.6773 12.0464 23.3778 12.2845C23.2088 12.4197 22.9155 12.5287 22.725 12.5272C22.5084 12.5256 22.3502 12.4089 22.3026 12.2169C22.2258 11.9113 22.2212 11.9112 21.4194 12.2046L20.613 12.4995C20.0217 11.7438 19.9818 11.7346 19.7683 11.9727ZM21.1522 21.7399C21.1522 21.8243 21.0139 21.8934 20.845 21.8934C20.676 21.8934 20.5378 21.9288 20.5378 21.9702C20.5378 22.0133 20.6069 22.1853 20.6914 22.3542C20.7938 22.559 20.7938 22.6358 20.6914 22.5846C20.6069 22.5432 20.5378 22.6123 20.5378 22.7382C20.5378 22.8657 20.4687 22.9686 20.3842 22.9686C20.2982 22.9686 20.2675 22.7828 20.3166 22.5462C20.374 22.2657 20.3202 22.0481 20.1553 21.8934C19.9372 21.6892 19.908 21.6892 19.8942 21.8934C19.8865 22.0209 19.8727 22.2452 19.8635 22.3911C19.8543 22.5386 19.7591 22.6599 19.6546 22.6599C19.5486 22.6614 19.4273 22.5585 19.3858 22.431C19.3397 22.2959 19.2307 22.2483 19.1201 22.3158C18.9865 22.3988 18.9634 22.3527 19.0433 22.1622C19.1247 21.9672 19.0817 21.8934 18.8866 21.8904C18.7376 21.8888 18.1509 22.0271 17.5811 22.1976C16.8331 22.4218 16.3446 22.6906 15.8285 23.1606C15.3846 23.5646 14.953 24.1651 14.695 24.735C14.4569 25.2633 14.2035 26.2141 14.1021 26.9621C13.9608 28.0035 13.9654 28.3091 14.1205 28.4674C14.2419 28.5887 14.6858 28.6624 15.2771 28.6593C16.0605 28.6532 16.2217 28.6102 16.1603 28.4213C16.1173 28.2953 16.1526 28.1909 16.2371 28.1909C16.3216 28.1909 16.3907 28.2953 16.3907 28.4213C16.3907 28.6148 16.7056 28.6517 18.3106 28.6517C19.5394 28.6517 20.2029 28.5964 20.1538 28.4981C20.1108 28.4136 19.9894 28.3445 19.885 28.3445C19.779 28.3445 19.693 28.2108 19.693 28.048C19.693 27.7685 19.7099 27.767 20.0002 28.0096C20.1692 28.1525 20.3581 28.3552 20.4226 28.4597C20.4932 28.5795 20.8849 28.6517 21.4594 28.6517C22.0922 28.6517 22.3809 28.5918 22.384 28.4597C22.3855 28.3552 22.6267 27.9912 22.9216 27.6533C23.2165 27.3154 23.4592 27.108 23.4607 27.1925C23.4638 27.277 23.2534 27.6226 22.9953 27.9605C22.7357 28.2984 22.5253 28.5933 22.5284 28.6133C22.5315 28.6348 24.1243 28.6517 26.0672 28.6517C28.7905 28.6517 29.5999 28.6087 29.5984 28.4597C29.5984 28.3552 29.7197 28.1939 29.8672 28.1033C30.0162 28.0112 30.1713 27.7485 30.2143 27.5166C30.2558 27.2862 30.2389 27.0666 30.1759 27.0297C30.1114 26.9928 30.0607 26.893 30.0607 26.8085C30.0607 26.724 30.1636 26.6549 30.2911 26.6549C30.4171 26.6549 30.5906 26.5167 30.6751 26.3477C30.7872 26.1235 30.7611 25.9069 30.5799 25.5413C30.4432 25.2679 30.1022 24.6628 29.8242 24.1974C29.5446 23.7335 29.0869 23.1913 28.8059 22.9917C28.4495 22.7413 28.2468 22.6814 28.1408 22.7935C28.0317 22.9087 27.895 22.9087 27.68 22.7935C27.4189 22.6537 27.4066 22.6092 27.6032 22.494C27.7967 22.3803 27.7906 22.3588 27.5648 22.3573C27.4158 22.3558 27.2607 22.4587 27.2192 22.5846C27.1762 22.7121 27.0733 22.815 26.9888 22.815C26.8864 22.815 26.8864 22.7126 26.9888 22.5078C27.0733 22.3389 27.1424 22.1668 27.1424 22.1238C27.1424 22.0824 26.8475 22.004 26.4896 21.9518C26.1302 21.8981 25.5942 21.8259 25.2993 21.7905C25.0028 21.7537 24.2901 21.6769 23.7126 21.617C22.7572 21.5187 22.6728 21.534 22.7526 21.7782C22.811 21.9549 22.7619 22.047 22.6113 22.047C22.4838 22.047 22.3809 21.9441 22.3809 21.8166C22.3809 21.6508 22.2104 21.5863 21.7666 21.5863C21.4286 21.5863 21.1522 21.6554 21.1522 21.7399Z" fill="black"/>
<path fill-rule="evenodd" clip-rule="evenodd" d="M20.9586 11.2292C20.6422 11.3506 20.1415 11.6916 19.845 11.9865C19.5486 12.2814 19.3059 12.5763 19.3044 12.6392C19.3028 12.7022 19.504 12.5471 19.7529 12.2936L20.2044 11.8329C20.5162 12.4841 20.5854 12.5041 20.9586 12.3551C21.1905 12.2629 21.6743 12.1585 22.0338 12.1247C22.576 12.074 22.6865 12.1093 22.6896 12.332C22.6927 12.5502 22.7495 12.5271 22.9907 12.2169C23.1535 12.0049 23.3946 11.816 23.5252 11.7945C23.6557 11.773 23.7279 11.8252 23.6849 11.9097C23.6419 11.9941 23.5037 12.0633 23.3777 12.0633C23.2456 12.0633 23.1873 12.1462 23.241 12.2553C23.3117 12.4027 23.3731 12.4058 23.5098 12.2645C23.6066 12.1646 23.7894 12.1278 23.9153 12.1846C24.0919 12.2629 24.1104 12.2337 23.9952 12.0602C23.9138 11.9342 24.0689 11.988 24.3408 12.1785C24.6603 12.4012 24.8384 12.4549 24.843 12.332C24.8461 12.2261 24.5865 11.9557 24.267 11.73C23.9476 11.5057 23.4084 11.2461 23.0705 11.1555C22.7326 11.0649 22.2488 10.9942 21.9954 11.0004C21.7419 11.005 21.275 11.1079 20.9586 11.2292ZM20.4026 18.8276C20.3043 18.9996 20.2951 19.0964 20.3826 19.0519C20.4671 19.0089 20.5347 19.0273 20.5316 19.0903C20.5285 19.1532 20.8234 19.3391 21.1844 19.5034C21.7235 19.7461 21.9646 19.7738 22.5222 19.657C22.8954 19.5772 23.2241 19.4266 23.2518 19.3207C23.2886 19.1778 23.1919 19.1625 22.8785 19.2608C22.6466 19.3345 22.2488 19.3713 21.9954 19.3437C21.7419 19.3161 21.3963 19.273 21.2274 19.2485C21.0584 19.2254 20.8434 19.0519 20.7482 18.866C20.5807 18.5342 20.5731 18.5327 20.4026 18.8276ZM19.653 21.683C19.4641 21.7137 19.3428 21.8089 19.3842 21.8934C19.4272 21.9779 19.3581 22.047 19.2306 22.047C19.1047 22.047 19.0002 22.1161 19.0002 22.2006C19.0002 22.2851 19.0694 22.3189 19.1538 22.2774C19.2383 22.2344 19.3428 22.3035 19.3842 22.431C19.4272 22.5569 19.5486 22.6598 19.653 22.6598C19.759 22.6583 19.8527 22.5385 19.8635 22.391C19.8727 22.2436 19.8865 22.0193 19.8942 21.8934C19.9065 21.6876 19.9356 21.6876 20.1553 21.8934C20.3191 22.047 20.3729 22.2646 20.3166 22.5462C20.2674 22.7827 20.2966 22.9686 20.3826 22.9686C20.4671 22.9686 20.5362 22.8641 20.5362 22.7382C20.5362 22.6107 20.6053 22.5416 20.6898 22.5846C20.7922 22.6358 20.7922 22.559 20.6898 22.3542C20.6053 22.1852 20.5362 22.0117 20.5362 21.9702C20.5362 21.9272 20.6744 21.8934 20.8434 21.8934C21.0124 21.8934 21.1506 21.8243 21.1506 21.7398C21.1506 21.6553 20.8925 21.5954 20.5746 21.6062C20.2582 21.6185 19.8435 21.6522 19.653 21.683ZM30.6167 26.426C30.5645 26.552 30.4186 26.6564 30.2926 26.6564C30.1651 26.6564 30.0592 26.7071 30.0561 26.7716C30.0545 26.8346 30.1743 27.0051 30.3249 27.151C30.4769 27.2969 30.6858 27.4182 30.7918 27.4198C30.9055 27.4228 30.9899 27.2093 30.9992 26.896C31.0084 26.6042 30.9469 26.3292 30.8625 26.2816C30.7795 26.2355 30.6689 26.3001 30.6167 26.426ZM30.2281 27.538C30.222 27.7285 30.0776 27.9712 29.9086 28.0756C29.7397 28.1816 29.6014 28.3552 29.6014 28.4596C29.6014 28.5763 29.8119 28.6516 30.139 28.6516C30.523 28.6516 30.7211 28.5641 30.8302 28.3444C30.9147 28.1755 30.9838 27.9343 30.9838 27.8068C30.9838 27.6793 30.8471 27.5764 30.6766 27.5764C30.5076 27.5764 30.3402 27.4904 30.3049 27.3844C30.2696 27.28 30.2342 27.3491 30.2281 27.538Z" fill="black"/>
<path d="M48.272 16.1957C49.376 16.1957 50.24 16.6397 50.864 17.5277C51.488 18.4037 51.8 19.6697 51.8 21.3257C51.8 22.4537 51.638 23.4077 51.314 24.1877C51.002 24.9557 50.57 25.5377 50.018 25.9337C49.478 26.3177 48.86 26.5097 48.164 26.5097C47.696 26.5097 47.3 26.4497 46.976 26.3297C46.652 26.2097 46.382 26.0657 46.166 25.8977C45.95 25.7177 45.77 25.5377 45.626 25.3577H45.518C45.542 25.5857 45.566 25.8317 45.59 26.0957C45.614 26.3597 45.626 26.6657 45.626 27.0137V30.6497H42.188V16.3757H44.978L45.464 17.6357H45.626C45.794 17.3717 45.992 17.1317 46.22 16.9157C46.46 16.6997 46.748 16.5257 47.084 16.3937C47.42 16.2617 47.816 16.1957 48.272 16.1957ZM46.976 18.8957C46.64 18.8957 46.376 18.9797 46.184 19.1477C45.992 19.3037 45.854 19.5377 45.77 19.8497C45.686 20.1617 45.638 20.5577 45.626 21.0377V21.3077C45.626 21.8357 45.662 22.2797 45.734 22.6397C45.818 22.9997 45.962 23.2757 46.166 23.4677C46.37 23.6477 46.646 23.7377 46.994 23.7377C47.282 23.7377 47.522 23.6597 47.714 23.5037C47.918 23.3357 48.068 23.0717 48.164 22.7117C48.26 22.3517 48.308 21.8777 48.308 21.2897C48.308 20.4137 48.194 19.7957 47.966 19.4357C47.738 19.0757 47.408 18.8957 46.976 18.8957ZM58.2364 16.1957C59.2084 16.1957 60.0424 16.3637 60.7384 16.6997C61.4464 17.0357 61.9864 17.5397 62.3584 18.2117C62.7424 18.8837 62.9344 19.7297 62.9344 20.7497V22.2797H56.7964C56.8204 22.7957 57.0124 23.2217 57.3724 23.5577C57.7444 23.8937 58.2784 24.0617 58.9744 24.0617C59.5984 24.0617 60.1684 24.0017 60.6844 23.8817C61.2004 23.7617 61.7344 23.5697 62.2864 23.3057V25.7717C61.8064 26.0237 61.2784 26.2097 60.7024 26.3297C60.1384 26.4497 59.4244 26.5097 58.5604 26.5097C57.5524 26.5097 56.6524 26.3357 55.8604 25.9877C55.0804 25.6277 54.4624 25.0697 54.0064 24.3137C53.5504 23.5577 53.3224 22.5917 53.3224 21.4157C53.3224 20.2157 53.5264 19.2317 53.9344 18.4637C54.3544 17.6957 54.9304 17.1257 55.6624 16.7537C56.4064 16.3817 57.2644 16.1957 58.2364 16.1957ZM58.3624 18.5357C57.9544 18.5357 57.6124 18.6617 57.3364 18.9137C57.0724 19.1657 56.9164 19.5677 56.8684 20.1197H59.8204C59.8204 19.8197 59.7604 19.5557 59.6404 19.3277C59.5324 19.0877 59.3704 18.8957 59.1544 18.7517C58.9384 18.6077 58.6744 18.5357 58.3624 18.5357ZM72.2794 16.3757V18.9317H68.3194V26.3297H64.8814V16.3757H72.2794ZM77.0309 20.2457C77.0309 20.4497 77.0249 20.6657 77.0129 20.8937C77.0129 21.1097 77.0069 21.3257 76.9949 21.5417C76.9829 21.7577 76.9649 21.9677 76.9409 22.1717C76.9289 22.3757 76.9169 22.5677 76.9049 22.7477L80.6669 16.3757H84.4109V26.3297H81.2789V22.7297C81.2789 22.4177 81.2789 22.0937 81.2789 21.7577C81.2909 21.4217 81.3089 21.0977 81.3329 20.7857C81.3569 20.4617 81.3809 20.1737 81.4049 19.9217L77.6069 26.3297H73.8989V16.3757H77.0309V20.2457ZM91.3197 26.5097C90.3117 26.5097 89.4357 26.3297 88.6917 25.9697C87.9477 25.6097 87.3717 25.0517 86.9637 24.2957C86.5557 23.5397 86.3517 22.5737 86.3517 21.3977C86.3517 20.1857 86.5797 19.2017 87.0357 18.4457C87.4917 17.6777 88.1097 17.1137 88.8897 16.7537C89.6817 16.3817 90.5817 16.1957 91.5897 16.1957C92.2017 16.1957 92.7777 16.2617 93.3177 16.3937C93.8697 16.5257 94.3797 16.7117 94.8477 16.9517L93.8397 19.4897C93.4317 19.3097 93.0477 19.1657 92.6877 19.0577C92.3397 18.9497 91.9737 18.8957 91.5897 18.8957C91.2417 18.8957 90.9357 18.9857 90.6717 19.1657C90.4077 19.3457 90.2037 19.6217 90.0597 19.9937C89.9157 20.3537 89.8437 20.8157 89.8437 21.3797C89.8437 21.9557 89.9157 22.4177 90.0597 22.7657C90.2157 23.1137 90.4257 23.3717 90.6897 23.5397C90.9537 23.6957 91.2597 23.7737 91.6077 23.7737C92.0997 23.7737 92.5917 23.6957 93.0837 23.5397C93.5877 23.3837 94.0617 23.1677 94.5057 22.8917V25.6277C94.0977 25.8917 93.6357 26.1077 93.1197 26.2757C92.6037 26.4317 92.0037 26.5097 91.3197 26.5097ZM105.721 18.9317H102.445V26.3297H99.0068V18.9317H95.7308V16.3757H105.721V18.9317ZM113.417 16.1957C114.521 16.1957 115.385 16.6397 116.009 17.5277C116.633 18.4037 116.945 19.6697 116.945 21.3257C116.945 22.4537 116.783 23.4077 116.459 24.1877C116.147 24.9557 115.715 25.5377 115.163 25.9337C114.623 26.3177 114.005 26.5097 113.309 26.5097C112.841 26.5097 112.445 26.4497 112.121 26.3297C111.797 26.2097 111.527 26.0657 111.311 25.8977C111.095 25.7177 110.915 25.5377 110.771 25.3577H110.663C110.687 25.5857 110.711 25.8317 110.735 26.0957C110.759 26.3597 110.771 26.6657 110.771 27.0137V30.6497H107.333V16.3757H110.123L110.609 17.6357H110.771C110.939 17.3717 111.137 17.1317 111.365 16.9157C111.605 16.6997 111.893 16.5257 112.229 16.3937C112.565 16.2617 112.961 16.1957 113.417 16.1957ZM112.121 18.8957C111.785 18.8957 111.521 18.9797 111.329 19.1477C111.137 19.3037 110.999 19.5377 110.915 19.8497C110.831 20.1617 110.783 20.5577 110.771 21.0377V21.3077C110.771 21.8357 110.807 22.2797 110.879 22.6397C110.963 22.9997 111.107 23.2757 111.311 23.4677C111.515 23.6477 111.791 23.7377 112.139 23.7377C112.427 23.7377 112.667 23.6597 112.859 23.5037C113.063 23.3357 113.213 23.0717 113.309 22.7117C113.405 22.3517 113.453 21.8777 113.453 21.2897C113.453 20.4137 113.339 19.7957 113.111 19.4357C112.883 19.0757 112.553 18.8957 112.121 18.8957ZM123.759 16.1957C125.019 16.1957 126.003 16.5077 126.711 17.1317C127.419 17.7557 127.773 18.6437 127.773 19.7957V26.3297H125.397L124.731 25.0157H124.659C124.383 25.3637 124.095 25.6517 123.795 25.8797C123.507 26.0957 123.171 26.2517 122.787 26.3477C122.403 26.4557 121.935 26.5097 121.383 26.5097C120.807 26.5097 120.291 26.3957 119.835 26.1677C119.379 25.9277 119.019 25.5737 118.755 25.1057C118.491 24.6257 118.359 24.0197 118.359 23.2877C118.359 22.2197 118.725 21.4277 119.457 20.9117C120.201 20.3957 121.275 20.1077 122.679 20.0477L124.335 19.9937V19.8497C124.335 19.4057 124.227 19.0937 124.011 18.9137C123.795 18.7217 123.501 18.6257 123.129 18.6257C122.733 18.6257 122.295 18.6977 121.815 18.8417C121.335 18.9737 120.849 19.1477 120.357 19.3637L119.367 17.0957C119.943 16.7957 120.591 16.5737 121.311 16.4297C122.043 16.2737 122.859 16.1957 123.759 16.1957ZM123.561 21.9197C122.937 21.9437 122.493 22.0577 122.229 22.2617C121.977 22.4537 121.851 22.7297 121.851 23.0897C121.851 23.4257 121.941 23.6777 122.121 23.8457C122.301 24.0017 122.541 24.0797 122.841 24.0797C123.261 24.0797 123.615 23.9477 123.903 23.6837C124.203 23.4197 124.353 23.0777 124.353 22.6577V21.8837L123.561 21.9197ZM142.408 29.9837H139.402V26.3297H130.114V16.3757H133.552V23.7737H136.738V16.3757H140.176V23.7737H142.408V29.9837ZM146.939 20.2457C146.939 20.4497 146.933 20.6657 146.921 20.8937C146.921 21.1097 146.915 21.3257 146.903 21.5417C146.891 21.7577 146.873 21.9677 146.849 22.1717C146.837 22.3757 146.825 22.5677 146.813 22.7477L150.575 16.3757H154.319V26.3297H151.187V22.7297C151.187 22.4177 151.187 22.0937 151.187 21.7577C151.199 21.4217 151.217 21.0977 151.241 20.7857C151.265 20.4617 151.289 20.1737 151.313 19.9217L147.515 26.3297H143.807V16.3757H146.939V20.2457ZM158.924 26.3297H155.288L157.844 22.5497C157.544 22.3817 157.262 22.1597 156.998 21.8837C156.746 21.6077 156.542 21.2777 156.386 20.8937C156.242 20.5097 156.17 20.0657 156.17 19.5617C156.17 18.5057 156.56 17.7137 157.34 17.1857C158.12 16.6457 159.182 16.3757 160.526 16.3757H165.278V26.3297H161.84V22.8737H160.832L158.924 26.3297ZM159.608 19.6697C159.608 19.9097 159.698 20.1317 159.878 20.3357C160.058 20.5277 160.388 20.6237 160.868 20.6237H161.84V18.6257H160.85C160.406 18.6257 160.088 18.7277 159.896 18.9317C159.704 19.1357 159.608 19.3817 159.608 19.6697Z" fill="black"/>
</svg>
