<svg width="330" height="19" viewBox="0 0 330 19" fill="none" xmlns="http://www.w3.org/2000/svg">
<path d="M11.2551 13H7.76706L4.37506 7.208V13H1.27106V1.576H4.37506V7.112L7.63906 1.576H11.0311L7.51106 7.032L11.2551 13ZM16.5713 3.992C17.6913 3.992 18.566 4.26933 19.1953 4.824C19.8246 5.37867 20.1393 6.168 20.1393 7.192V13H18.0273L17.4353 11.832H17.3713C17.126 12.1413 16.87 12.3973 16.6033 12.6C16.3473 12.792 16.0486 12.9307 15.7073 13.016C15.366 13.112 14.95 13.16 14.4593 13.16C13.9473 13.16 13.4886 13.0587 13.0833 12.856C12.678 12.6427 12.358 12.328 12.1233 11.912C11.8886 11.4853 11.7713 10.9467 11.7713 10.296C11.7713 9.34667 12.0966 8.64267 12.7473 8.184C13.4086 7.72533 14.3633 7.46933 15.6113 7.416L17.0833 7.368V7.24C17.0833 6.84533 16.9873 6.568 16.7953 6.408C16.6033 6.23733 16.342 6.152 16.0113 6.152C15.6593 6.152 15.27 6.216 14.8433 6.344C14.4166 6.46133 13.9846 6.616 13.5473 6.808L12.6673 4.792C13.1793 4.52533 13.7553 4.328 14.3953 4.2C15.046 4.06133 15.7713 3.992 16.5713 3.992ZM16.3953 9.08C15.8406 9.10133 15.446 9.20267 15.2113 9.384C14.9873 9.55467 14.8753 9.8 14.8753 10.12C14.8753 10.4187 14.9553 10.6427 15.1153 10.792C15.2753 10.9307 15.4886 11 15.7553 11C16.1286 11 16.4433 10.8827 16.6993 10.648C16.966 10.4133 17.0993 10.1093 17.0993 9.736V9.048L16.3953 9.08ZM30.4281 6.424H27.5161V13H24.4601V6.424H21.5481V4.152H30.4281V6.424ZM36.1807 3.992C37.3007 3.992 38.1754 4.26933 38.8047 4.824C39.434 5.37867 39.7487 6.168 39.7487 7.192V13H37.6367L37.0447 11.832H36.9807C36.7354 12.1413 36.4794 12.3973 36.2127 12.6C35.9567 12.792 35.658 12.9307 35.3167 13.016C34.9754 13.112 34.5594 13.16 34.0687 13.16C33.5567 13.16 33.098 13.0587 32.6927 12.856C32.2874 12.6427 31.9674 12.328 31.7327 11.912C31.498 11.4853 31.3807 10.9467 31.3807 10.296C31.3807 9.34667 31.706 8.64267 32.3567 8.184C33.018 7.72533 33.9727 7.46933 35.2207 7.416L36.6927 7.368V7.24C36.6927 6.84533 36.5967 6.568 36.4047 6.408C36.2127 6.23733 35.9514 6.152 35.6207 6.152C35.2687 6.152 34.8794 6.216 34.4527 6.344C34.026 6.46133 33.594 6.616 33.1567 6.808L32.2767 4.792C32.7887 4.52533 33.3647 4.328 34.0047 4.2C34.6554 4.06133 35.3807 3.992 36.1807 3.992ZM36.0047 9.08C35.45 9.10133 35.0554 9.20267 34.8207 9.384C34.5967 9.55467 34.4847 9.8 34.4847 10.12C34.4847 10.4187 34.5647 10.6427 34.7247 10.792C34.8847 10.9307 35.098 11 35.3647 11C35.738 11 36.0527 10.8827 36.3087 10.648C36.5754 10.4133 36.7087 10.1093 36.7087 9.736V9.048L36.0047 9.08ZM50.7094 13H47.6534V6.424H45.8614C45.7548 7.65067 45.6214 8.696 45.4614 9.56C45.3014 10.4133 45.0881 11.1067 44.8214 11.64C44.5548 12.1627 44.2134 12.5467 43.7974 12.792C43.3921 13.0373 42.8854 13.16 42.2774 13.16C42.0428 13.16 41.7974 13.1387 41.5414 13.096C41.2961 13.0533 41.0828 12.9947 40.9014 12.92V10.648C41.0081 10.7013 41.1148 10.7387 41.2214 10.76C41.3281 10.7813 41.4508 10.792 41.5894 10.792C41.7174 10.792 41.8401 10.7493 41.9574 10.664C42.0748 10.5787 42.1814 10.4133 42.2774 10.168C42.3841 9.92267 42.4854 9.55467 42.5814 9.064C42.6774 8.57333 42.7681 7.93333 42.8534 7.144C42.9494 6.344 43.0348 5.34667 43.1094 4.152H50.7094V13ZM61.2618 8.552C61.2618 9.288 61.1605 9.944 60.9578 10.52C60.7551 11.096 60.4618 11.5813 60.0778 11.976C59.6938 12.36 59.2298 12.6533 58.6858 12.856C58.1418 13.0587 57.5231 13.16 56.8298 13.16C56.1898 13.16 55.5978 13.0587 55.0538 12.856C54.5205 12.6533 54.0565 12.36 53.6618 11.976C53.2778 11.5813 52.9738 11.096 52.7498 10.52C52.5365 9.944 52.4298 9.288 52.4298 8.552C52.4298 7.57067 52.6058 6.744 52.9578 6.072C53.3205 5.38933 53.8325 4.872 54.4938 4.52C55.1551 4.168 55.9498 3.992 56.8778 3.992C57.7311 3.992 58.4831 4.168 59.1338 4.52C59.7951 4.872 60.3125 5.38933 60.6858 6.072C61.0698 6.744 61.2618 7.57067 61.2618 8.552ZM55.5338 8.552C55.5338 9.05333 55.5765 9.48 55.6618 9.832C55.7471 10.184 55.8858 10.4507 56.0778 10.632C56.2805 10.8027 56.5418 10.888 56.8618 10.888C57.1818 10.888 57.4325 10.8027 57.6138 10.632C57.8058 10.4507 57.9445 10.184 58.0298 9.832C58.1151 9.48 58.1578 9.05333 58.1578 8.552C58.1578 8.05067 58.1151 7.62933 58.0298 7.288C57.9445 6.94667 57.8058 6.69067 57.6138 6.52C57.4218 6.34933 57.1658 6.264 56.8458 6.264C56.3871 6.264 56.0511 6.456 55.8378 6.84C55.6351 7.224 55.5338 7.79467 55.5338 8.552ZM69.5773 4.152V6.424H66.0573V13H63.0013V4.152H69.5773Z" fill="#C3C2C3"/>
<path d="M109.036 1.576V4.072H104.524V13H101.42V1.576H109.036ZM115.105 3.992C116.086 3.992 116.854 4.38667 117.409 5.176C117.963 5.95467 118.241 7.08 118.241 8.552C118.241 9.55467 118.097 10.4027 117.809 11.096C117.531 11.7787 117.147 12.296 116.657 12.648C116.177 12.9893 115.627 13.16 115.009 13.16C114.593 13.16 114.241 13.1067 113.953 13C113.665 12.8933 113.425 12.7653 113.233 12.616C113.041 12.456 112.881 12.296 112.753 12.136H112.657C112.678 12.3387 112.699 12.5573 112.721 12.792C112.742 13.0267 112.753 13.2987 112.753 13.608V16.84H109.697V4.152H112.177L112.609 5.272H112.753C112.902 5.03733 113.078 4.824 113.281 4.632C113.494 4.44 113.75 4.28533 114.049 4.168C114.347 4.05067 114.699 3.992 115.105 3.992ZM113.953 6.392C113.654 6.392 113.419 6.46667 113.249 6.616C113.078 6.75467 112.955 6.96267 112.881 7.24C112.806 7.51733 112.763 7.86933 112.753 8.296V8.536C112.753 9.00533 112.785 9.4 112.849 9.72C112.923 10.04 113.051 10.2853 113.233 10.456C113.414 10.616 113.659 10.696 113.969 10.696C114.225 10.696 114.438 10.6267 114.609 10.488C114.79 10.3387 114.923 10.104 115.009 9.784C115.094 9.464 115.137 9.04267 115.137 8.52C115.137 7.74133 115.035 7.192 114.833 6.872C114.63 6.552 114.337 6.392 113.953 6.392ZM118.75 4.152H121.966L123.47 9.224C123.491 9.29867 123.512 9.38933 123.534 9.496C123.555 9.60267 123.571 9.71467 123.582 9.832C123.603 9.94933 123.614 10.0667 123.614 10.184H123.678C123.699 9.97067 123.726 9.78933 123.758 9.64C123.8 9.48 123.838 9.34667 123.87 9.24L125.406 4.152H128.526L125.022 13.56C124.755 14.2747 124.44 14.8773 124.078 15.368C123.726 15.8587 123.288 16.2267 122.766 16.472C122.243 16.7173 121.592 16.84 120.814 16.84C120.536 16.84 120.296 16.824 120.094 16.792C119.891 16.7707 119.715 16.744 119.566 16.712V14.312C119.683 14.3333 119.822 14.3547 119.982 14.376C120.152 14.3973 120.328 14.408 120.51 14.408C120.851 14.408 121.123 14.3387 121.326 14.2C121.539 14.0613 121.715 13.88 121.854 13.656C121.992 13.4427 122.11 13.208 122.206 12.952L122.238 12.872L118.75 4.152ZM137.987 4.152V13H134.931V6.424H132.643V13H129.587V4.152H137.987ZM148.503 4.152V13H145.447V6.424H143.159V13H140.103V4.152H148.503ZM153.403 7.592C153.403 7.77333 153.397 7.96533 153.387 8.168C153.387 8.36 153.381 8.552 153.371 8.744C153.36 8.936 153.344 9.12267 153.323 9.304C153.312 9.48533 153.301 9.656 153.291 9.816L156.635 4.152H159.963V13H157.179V9.8C157.179 9.52267 157.179 9.23467 157.179 8.936C157.189 8.63733 157.205 8.34933 157.227 8.072C157.248 7.784 157.269 7.528 157.291 7.304L153.915 13H150.618V4.152H153.403V7.592ZM167.48 3.992C168.461 3.992 169.229 4.38667 169.784 5.176C170.338 5.95467 170.616 7.08 170.616 8.552C170.616 9.55467 170.472 10.4027 170.184 11.096C169.906 11.7787 169.522 12.296 169.032 12.648C168.552 12.9893 168.002 13.16 167.384 13.16C166.968 13.16 166.616 13.1067 166.328 13C166.04 12.8933 165.8 12.7653 165.608 12.616C165.416 12.456 165.256 12.296 165.128 12.136H165.032C165.053 12.3387 165.074 12.5573 165.096 12.792C165.117 13.0267 165.128 13.2987 165.128 13.608V16.84H162.072V4.152H164.552L164.984 5.272H165.128C165.277 5.03733 165.453 4.824 165.656 4.632C165.869 4.44 166.125 4.28533 166.424 4.168C166.722 4.05067 167.074 3.992 167.48 3.992ZM166.328 6.392C166.029 6.392 165.794 6.46667 165.624 6.616C165.453 6.75467 165.33 6.96267 165.256 7.24C165.181 7.51733 165.138 7.86933 165.128 8.296V8.536C165.128 9.00533 165.16 9.4 165.224 9.72C165.298 10.04 165.426 10.2853 165.608 10.456C165.789 10.616 166.034 10.696 166.344 10.696C166.6 10.696 166.813 10.6267 166.984 10.488C167.165 10.3387 167.298 10.104 167.384 9.784C167.469 9.464 167.512 9.04267 167.512 8.52C167.512 7.74133 167.41 7.192 167.208 6.872C167.005 6.552 166.712 6.392 166.328 6.392ZM180.801 8.552C180.801 9.288 180.7 9.944 180.497 10.52C180.294 11.096 180.001 11.5813 179.617 11.976C179.233 12.36 178.769 12.6533 178.225 12.856C177.681 13.0587 177.062 13.16 176.369 13.16C175.729 13.16 175.137 13.0587 174.593 12.856C174.06 12.6533 173.596 12.36 173.201 11.976C172.817 11.5813 172.513 11.096 172.289 10.52C172.076 9.944 171.969 9.288 171.969 8.552C171.969 7.57067 172.145 6.744 172.497 6.072C172.86 5.38933 173.372 4.872 174.033 4.52C174.694 4.168 175.489 3.992 176.417 3.992C177.27 3.992 178.022 4.168 178.673 4.52C179.334 4.872 179.852 5.38933 180.225 6.072C180.609 6.744 180.801 7.57067 180.801 8.552ZM175.073 8.552C175.073 9.05333 175.116 9.48 175.201 9.832C175.286 10.184 175.425 10.4507 175.617 10.632C175.82 10.8027 176.081 10.888 176.401 10.888C176.721 10.888 176.972 10.8027 177.153 10.632C177.345 10.4507 177.484 10.184 177.569 9.832C177.654 9.48 177.697 9.05333 177.697 8.552C177.697 8.05067 177.654 7.62933 177.569 7.288C177.484 6.94667 177.345 6.69067 177.153 6.52C176.961 6.34933 176.705 6.264 176.385 6.264C175.926 6.264 175.59 6.456 175.377 6.84C175.174 7.224 175.073 7.79467 175.073 8.552ZM190.732 6.44C190.732 6.89867 190.594 7.30933 190.316 7.672C190.039 8.03467 189.612 8.264 189.036 8.36V8.424C189.666 8.49867 190.151 8.71733 190.492 9.08C190.834 9.44267 191.004 9.90667 191.004 10.472C191.004 10.8027 190.94 11.1227 190.812 11.432C190.684 11.7307 190.466 11.9973 190.156 12.232C189.847 12.4667 189.426 12.6533 188.892 12.792C188.359 12.9307 187.687 13 186.876 13H182.54V4.152H186.892C187.788 4.152 188.519 4.24267 189.084 4.424C189.65 4.59467 190.066 4.85067 190.332 5.192C190.599 5.52267 190.732 5.93867 190.732 6.44ZM187.9 10.168C187.9 9.944 187.826 9.76267 187.676 9.624C187.527 9.47467 187.239 9.4 186.812 9.4H185.596V11H186.78C187.186 11 187.474 10.9253 187.644 10.776C187.815 10.616 187.9 10.4133 187.9 10.168ZM187.692 6.84C187.692 6.616 187.618 6.44533 187.468 6.328C187.33 6.21067 187.122 6.152 186.844 6.152H185.596V7.48H186.732C187.052 7.48 187.292 7.42133 187.452 7.304C187.612 7.176 187.692 7.02133 187.692 6.84ZM198.795 4.152H202.171L198.859 8.392L202.427 13H198.939L195.659 8.504V13H192.603V4.152H195.659V8.44L198.795 4.152ZM206.199 7.592C206.199 7.77333 206.194 7.96533 206.183 8.168C206.183 8.36 206.178 8.552 206.167 8.744C206.157 8.936 206.141 9.12267 206.119 9.304C206.109 9.48533 206.098 9.656 206.087 9.816L209.431 4.152H212.759V13H209.975V9.8C209.975 9.52267 209.975 9.23467 209.975 8.936C209.986 8.63733 210.002 8.34933 210.023 8.072C210.045 7.784 210.066 7.528 210.087 7.304L206.711 13H203.415V4.152H206.199V7.592Z" fill="#C3C2C3"/>
</svg>
