<svg width="40" height="40" viewBox="0 0 40 40" fill="none" xmlns="http://www.w3.org/2000/svg">
<rect width="40" height="40" rx="5" fill="#818081"/>
<path fill-rule="evenodd" clip-rule="evenodd" d="M10.9112 11.2495C10.816 11.4165 10.4372 11.5763 10.0261 11.6211C9.6312 11.6642 9.24702 11.7037 9.17162 11.7091C9.09623 11.7145 8.81258 12.0574 8.5433 12.4685L8.05142 13.2189C7.95448 20.335 8.00475 22.2846 8.11784 22.6706C8.22017 23.0153 8.53074 23.5215 8.80541 23.7926C9.08187 24.0637 9.6312 24.3994 10.0261 24.5394C10.7119 24.7817 10.7442 24.8284 10.7568 25.5716L10.7694 26.3507C12.4604 26.4459 12.6471 26.3741 13.7422 25.5932L14.945 24.7351L14.9629 20.5163C13.1695 20.5253 12.8177 20.4427 12.5897 20.2076C12.4191 20.0316 12.2755 19.7659 12.2719 19.6187C12.2683 19.4697 12.3617 19.2489 12.482 19.1251C12.6023 19.0012 13.069 18.8953 13.5178 18.8899C13.9666 18.8845 14.6506 18.8235 15.0383 18.7553C15.4243 18.687 15.7672 18.5506 15.8013 18.4519C15.8336 18.3531 15.7187 18.2634 15.5464 18.2544C15.374 18.2454 15.1784 18.3262 15.1119 18.4339C15.0258 18.5757 14.9252 18.5739 14.7529 18.4231C14.6219 18.31 14.3113 18.188 14.0653 18.1539C13.7099 18.1054 13.6165 17.9887 13.6165 17.5991C13.6165 17.1916 13.5393 17.1073 13.1677 17.1109C12.92 17.1144 12.5789 16.9726 12.4102 16.7967C12.2396 16.6208 12.0942 16.3964 12.0888 16.2976C12.0834 16.1989 12.2235 15.9835 12.3994 15.8201C12.6525 15.5849 13.2431 15.5006 15.2322 15.418C16.6145 15.3605 17.9466 15.3174 18.1943 15.321C18.4402 15.3264 20.0972 15.33 21.8745 15.3318C24.3734 15.3354 25.1327 15.2815 25.2279 15.0984C25.2961 14.9674 25.2961 14.7915 25.2279 14.7071C25.1615 14.6209 25.2063 14.5006 25.3284 14.4378C25.4882 14.3552 25.5133 14.0824 25.4182 13.4738C25.3356 12.9478 25.3536 12.5995 25.4649 12.56C25.5636 12.5223 25.3607 12.2333 25.0161 11.9155C24.6696 11.596 24.0646 11.2531 23.6697 11.1508C23.2747 11.0503 22.264 11.009 21.4257 11.0628C20.5855 11.1149 19.7256 11.1831 19.512 11.2154C19.2983 11.2459 19.0632 11.3321 18.9896 11.4057C18.9142 11.4793 18.7849 11.5403 18.7023 11.5403C18.6198 11.5403 18.5928 11.4596 18.6431 11.3608C18.6916 11.2621 18.6108 11.1813 18.4636 11.1813C18.3146 11.1813 18.153 11.3016 18.1045 11.4506C18.0381 11.6516 17.8658 11.6894 17.4313 11.6014C17.11 11.5368 16.7869 11.3949 16.7133 11.2872C16.6199 11.1508 16.5373 11.1651 16.444 11.3357C16.3309 11.5385 16.2357 11.5368 15.8605 11.3195C15.6128 11.1777 15.1281 11.0395 14.7834 11.0144C14.4028 10.9856 14.0312 11.079 13.8409 11.2531C13.6506 11.4273 13.5088 11.4631 13.4819 11.3447C13.4568 11.237 12.9056 11.1059 12.2576 11.0521C11.2864 10.9731 11.0476 11.0072 10.9112 11.2495ZM21.607 18.1682C18.846 18.2598 18.4061 18.3172 17.9789 18.6332C17.7132 18.8307 17.39 19.2346 17.2608 19.5308C17.092 19.9203 17.0292 21.2129 17.0292 24.2109C17.0292 28.3344 17.031 28.356 17.478 29.0112C17.7329 29.3828 18.2176 29.785 18.6 29.9393C19.0991 30.1422 20.0003 30.2122 22.1007 30.2158L24.9281 30.2212C26.3876 31.327 26.8525 31.6484 26.9028 31.6484C26.9513 31.6484 26.9513 31.4868 26.9028 31.2893C26.843 31.05 26.9028 30.9303 27.0823 30.9303C27.2295 30.9303 27.3516 31.0111 27.3516 31.1098C27.3516 31.2085 27.6137 31.1511 27.9351 30.9824C28.2546 30.8136 28.5777 30.6933 28.6531 30.7131C28.7267 30.7328 28.7878 30.6287 28.7878 30.4815C28.7878 30.3325 29.0086 30.1584 29.2814 30.0937C29.5525 30.0273 30.0767 29.785 30.4483 29.5552C30.8181 29.3236 31.2346 28.9125 31.3729 28.6414C31.5201 28.3506 31.5811 27.9251 31.5165 27.6092C31.4393 27.216 31.468 27.1065 31.6242 27.2053C31.7552 27.286 31.8396 27.234 31.8396 27.0706C31.8396 26.9216 31.7588 26.8013 31.6601 26.8013C31.5614 26.8013 31.4806 26.6793 31.4806 26.5321C31.4806 26.3831 31.5614 26.2628 31.6601 26.2628C31.7588 26.2628 31.8396 25.9791 31.8396 25.6345C31.8396 25.1246 31.7624 24.99 31.4357 24.9254C31.2131 24.8823 30.6278 24.7943 30.1342 24.7297L29.2366 24.613C29.1468 23.4569 29.1181 23.0799 29.1127 23.0314C29.1073 22.9812 29.1127 22.2738 29.1253 21.4606C29.1396 20.4068 29.2114 19.9796 29.3712 19.9796C29.4933 19.9796 29.5956 19.8575 29.5956 19.7103C29.5956 19.5613 29.5346 19.441 29.461 19.441C29.3856 19.441 29.3263 19.3602 29.3263 19.2615C29.3263 19.1628 29.5076 19.0856 29.7302 19.0892C29.9511 19.0927 30.2347 18.9725 30.3586 18.8199C30.5453 18.5901 30.5148 18.5057 30.179 18.3208C29.917 18.1772 28.8883 18.091 27.2619 18.0803C25.8795 18.0695 23.334 18.109 21.607 18.1682ZM10.6545 27.1155C10.6545 27.3058 10.8035 27.4404 11.0332 27.4602C11.2433 27.4763 11.5862 27.3363 11.798 27.1496L12.1822 26.8085C10.8106 26.8013 10.6563 26.8642 10.6545 27.1155Z" fill="black"/>
<path fill-rule="evenodd" clip-rule="evenodd" d="M10.1245 11.2029C9.78344 11.2962 9.52134 11.4506 9.54109 11.5457C9.56083 11.6409 9.7601 11.6804 9.98091 11.6337C10.2035 11.5852 10.4872 11.544 10.6092 11.544C10.7331 11.5422 10.857 11.4201 10.8821 11.2711C10.909 11.1239 10.8893 11.009 10.8372 11.018C10.787 11.0269 10.4656 11.1095 10.1245 11.2029ZM15.8369 11.3142C16.2067 11.5906 16.2803 11.596 16.4203 11.3608C16.5334 11.1688 16.6178 11.1508 16.7129 11.298C16.7883 11.4111 17.1132 11.5332 17.4382 11.5673C17.8259 11.6086 18.0826 11.5386 18.1886 11.3608C18.2963 11.1777 18.4668 11.1346 18.7199 11.2262C18.9497 11.3088 19.0574 11.2926 19.0018 11.1813C18.9515 11.0808 18.1491 11.0018 17.1617 11C15.4509 11 15.4222 11.0072 15.8369 11.3142ZM25.3819 13.2907C25.4502 13.6605 25.565 14.2062 25.6332 14.5024C25.7553 15.023 25.7499 15.0284 25.4645 14.682C25.2545 14.4288 25.1791 14.4019 25.2042 14.5922C25.2222 14.7412 25.2293 14.962 25.2168 15.0859C25.2036 15.2355 24.8224 15.3198 24.0732 15.339C23.3569 15.3569 23.1792 15.3946 23.5795 15.4431C23.926 15.4862 24.6118 15.47 25.1055 15.409L26.0031 15.2977C26.0803 14.1254 26.021 13.5223 25.9187 13.2009C25.8182 12.8796 25.6261 12.6175 25.495 12.6175C25.3137 12.6175 25.2868 12.7862 25.3819 13.2907ZM17.4759 15.3103C17.1456 15.4162 17.334 15.4611 18.1939 15.4772C18.8366 15.4898 19.3213 15.4682 19.2711 15.4288C19.2226 15.3893 18.8995 15.3157 18.553 15.2636C18.2083 15.2097 17.7236 15.2331 17.4759 15.3103ZM13.5929 17.3299C13.5354 17.4537 13.5372 17.6961 13.5982 17.8684C13.6593 18.0444 13.8855 18.1808 14.1099 18.179C14.3325 18.179 14.6197 18.2795 14.7472 18.4034C14.9339 18.5883 15.0039 18.5865 15.1062 18.3998C15.1762 18.2724 15.3127 18.1808 15.4114 18.197C15.5101 18.2131 15.6717 18.2167 15.7704 18.2077C15.8692 18.1988 16.1331 17.9474 16.3539 17.6476L16.7578 17.1055C14.1799 17.1055 13.6647 17.1755 13.5929 17.3299ZM20.5277 18.1377C21.3679 18.17 22.6604 18.17 23.4 18.1359C24.1414 18.1036 23.4539 18.0749 21.8741 18.0767C20.2943 18.0767 19.6893 18.1036 20.5277 18.1377ZM29.992 18.3172C29.931 18.3908 29.9184 18.5524 29.9633 18.6763C30.0261 18.8558 30.1051 18.8558 30.3564 18.6763C30.6275 18.4824 30.6401 18.4896 30.448 18.7212C30.3259 18.8702 30.2559 19.0317 30.2936 19.0802C30.3295 19.1305 30.1877 19.1394 29.9776 19.1035C29.7658 19.0658 29.5145 19.1466 29.4157 19.2831C29.2883 19.4626 29.2991 19.4931 29.4606 19.3944C29.6132 19.3028 29.6707 19.3746 29.6383 19.6188C29.615 19.818 29.4929 19.9796 29.3691 19.9778C29.2111 19.9778 29.1393 20.4051 29.1249 21.4588C29.1124 22.2739 29.107 22.9812 29.1123 23.0296C29.1177 23.0799 29.1465 23.4515 29.1788 23.859L29.2344 24.5968C31.1822 24.9074 31.8087 25.0995 31.8805 25.2252C31.9541 25.3508 32.0062 24.3635 31.999 23.0296C31.9901 21.6976 31.9093 20.3027 31.8213 19.9329C31.7262 19.5416 31.4335 19.0712 31.1194 18.8109C30.7603 18.5105 30.4761 18.4046 30.2667 18.4932C30.0459 18.5847 29.992 18.5596 30.0818 18.4034C30.1518 18.2813 30.1859 18.1826 30.1554 18.1826C30.1266 18.1826 30.053 18.2436 29.992 18.3172ZM10.6541 26.5752C10.6541 26.7188 10.9288 26.8013 11.4171 26.8031C11.8371 26.8049 12.3237 26.7044 12.4978 26.5787C12.7671 26.3849 12.654 26.3507 11.7348 26.3507C10.9898 26.3507 10.6541 26.4208 10.6541 26.5752ZM27.7893 31.0057C27.3997 31.2104 27.0191 31.4581 26.9455 31.5568C26.8719 31.6556 27.1717 32.0774 27.6187 32.4993C28.064 32.9194 28.5074 33.2623 28.6061 33.2623C28.7066 33.2623 28.7928 32.7147 28.8036 32.0164C28.8143 31.3306 28.7497 30.74 28.66 30.7023C28.572 30.6646 28.1806 30.801 27.7893 31.0057Z" fill="black"/>
<path d="M13.9899 12.7521C13.9379 12.8257 13.9953 13.0986 14.1156 13.3553C14.2844 13.7197 14.4746 13.831 14.9611 13.8526C15.3076 13.8687 15.699 13.9801 15.8318 14.1021C16.0275 14.2816 16.0508 14.2565 15.9521 13.9639C15.8372 13.6246 15.8462 13.6228 16.1137 13.919C16.2752 14.0967 16.4368 14.1542 16.4871 14.0537C16.5373 13.9549 17.1423 13.8741 17.8335 13.8741H19.0901V12.6175C15.374 12.6175 14.7619 12.6785 14.7062 12.8419C14.647 13.0214 14.629 13.0214 14.6165 12.8419C14.6093 12.718 14.4854 12.6175 14.3418 12.6175C14.1982 12.6175 14.0402 12.6785 13.9899 12.7521ZM21.8026 23.7926C21.6124 24.1247 21.6142 24.2199 21.8116 24.3276C21.9445 24.4012 21.9714 24.4586 21.8727 24.455C21.7739 24.4514 21.8152 24.5789 21.9624 24.7351C22.1114 24.8913 22.4148 25.0169 22.6356 25.0115C22.8582 25.008 23.0377 24.9433 23.0359 24.8697C23.0341 24.7961 23.2765 24.6741 23.5745 24.6004C23.8725 24.5268 24.1167 24.385 24.1167 24.2863C24.1167 24.1876 24.0359 24.1068 23.9371 24.1068C23.8384 24.1068 23.7576 23.9865 23.7576 23.8375C23.7576 23.6885 23.8994 23.5377 24.0718 23.5C24.2459 23.4605 23.8581 23.421 23.2101 23.4102C22.1689 23.3905 22.0091 23.4354 21.8026 23.7926ZM24.9694 23.4928C25.0932 23.5341 25.1938 23.7298 25.1938 23.9272C25.1938 24.2073 25.3141 24.2863 25.7323 24.2863C26.1219 24.2863 26.296 24.1858 26.3607 23.9272C26.4235 23.6795 26.6317 23.5503 27.0339 23.5072C27.3552 23.4731 26.971 23.439 26.1811 23.4318C25.3912 23.4228 24.8473 23.4515 24.9694 23.4928ZM30.6691 28.1765C30.5884 28.2411 30.5345 28.444 30.5506 28.6253C30.5704 28.8497 30.4735 28.9412 30.2419 28.9125C30.0552 28.8892 29.8128 28.9305 29.7033 29.0023C29.5938 29.0741 29.5023 29.2141 29.5023 29.3128C29.5023 29.4116 29.583 29.4924 29.6818 29.4924C29.7805 29.4924 29.8631 29.3918 29.8631 29.268C29.8649 29.1441 30.0444 29.0436 30.2616 29.0436C30.5147 29.0436 30.6835 28.9143 30.7302 28.6845C30.7697 28.4871 30.8935 28.2662 31.0048 28.1944C31.1425 28.1059 31.1455 28.061 31.0138 28.0598C30.9061 28.058 30.7517 28.1101 30.6691 28.1765Z" fill="black"/>
</svg>
