<svg width="130" height="55" viewBox="0 0 130 55" fill="none" xmlns="http://www.w3.org/2000/svg">
<rect x="0.682327" y="8.87038" width="128.277" height="45.0336" rx="6.14094" stroke="#252525" stroke-width="1.36465"/>
<rect width="54.5861" height="15.0112" transform="translate(38.21)" fill="#131317"/>
<path d="M52.7722 7.03571C52.7722 7.88345 52.6171 8.6123 52.3069 9.22226C51.9968 9.82964 51.5716 10.2974 51.0314 10.6257C50.4939 10.9513 49.8826 11.1142 49.1977 11.1142C48.5102 11.1142 47.8964 10.9513 47.3562 10.6257C46.8186 10.2974 46.3947 9.82834 46.0846 9.21838C45.7744 8.60843 45.6193 7.88087 45.6193 7.03571C45.6193 6.18797 45.7744 5.46042 46.0846 4.85304C46.3947 4.24308 46.8186 3.77528 47.3562 3.44962C47.8964 3.12138 48.5102 2.95726 49.1977 2.95726C49.8826 2.95726 50.4939 3.12138 51.0314 3.44962C51.5716 3.77528 51.9968 4.24308 52.3069 4.85304C52.6171 5.46042 52.7722 6.18797 52.7722 7.03571ZM51.5858 7.03571C51.5858 6.38957 51.4812 5.84552 51.2718 5.40356C51.065 4.95901 50.7807 4.62302 50.4189 4.39557C50.0596 4.16555 49.6526 4.05053 49.1977 4.05053C48.7402 4.05053 48.3319 4.16555 47.9726 4.39557C47.6133 4.62302 47.329 4.95901 47.1197 5.40356C46.9129 5.84552 46.8095 6.38957 46.8095 7.03571C46.8095 7.68186 46.9129 8.2272 47.1197 8.67175C47.329 9.11371 47.6133 9.4497 47.9726 9.67973C48.3319 9.90717 48.7402 10.0209 49.1977 10.0209C49.6526 10.0209 50.0596 9.90717 50.4189 9.67973C50.7807 9.4497 51.065 9.11371 51.2718 8.67175C51.4812 8.2272 51.5858 7.68186 51.5858 7.03571ZM58.2085 7.52807V8.53218H54.9829V7.52807H58.2085ZM55.3086 5.05076V11.0056H54.1727V5.05076H55.3086ZM59.0187 5.05076V11.0056H57.8867V5.05076H59.0187ZM60.1004 11.0056L60.0965 10.0015H60.3097C60.4751 10.0015 60.6134 9.96662 60.7246 9.89683C60.8383 9.82447 60.9313 9.70299 61.0037 9.53241C61.0761 9.36183 61.1316 9.12663 61.1704 8.82682C61.2092 8.52443 61.2376 8.14449 61.2557 7.68703L61.3604 5.05076H65.5163V11.0056H64.3804V6.05099H62.4342L62.3412 8.07471C62.3179 8.56578 62.2675 8.99482 62.19 9.36183C62.1151 9.72884 62.0052 10.0351 61.8605 10.2806C61.7157 10.5236 61.5296 10.7058 61.3022 10.8273C61.0748 10.9462 60.7982 11.0056 60.4726 11.0056H60.1004ZM68.7952 11.1374C68.4179 11.1374 68.0767 11.0676 67.7717 10.9281C67.4667 10.7859 67.2251 10.5805 67.0467 10.3117C66.871 10.0429 66.7831 9.71333 66.7831 9.32306C66.7831 8.98707 66.8477 8.71052 66.977 8.49341C67.1062 8.27631 67.2806 8.10443 67.5003 7.97779C67.72 7.85115 67.9656 7.75552 68.2369 7.6909C68.5083 7.62629 68.7849 7.57718 69.0666 7.54358C69.4233 7.50223 69.7127 7.46863 69.935 7.44278C70.1573 7.41435 70.3188 7.36912 70.4196 7.30709C70.5204 7.24506 70.5708 7.14427 70.5708 7.0047V6.97756C70.5708 6.63898 70.4752 6.37665 70.2839 6.19056C70.0952 6.00447 69.8135 5.91143 69.4388 5.91143C69.0485 5.91143 68.7409 5.99801 68.5161 6.17117C68.2938 6.34176 68.14 6.53172 68.0547 6.74107L66.9653 6.49295C67.0946 6.13111 67.2832 5.83906 67.5313 5.61678C67.782 5.39193 68.0702 5.2291 68.3959 5.1283C68.7215 5.02492 69.064 4.97323 69.4233 4.97323C69.661 4.97323 69.913 5.00166 70.1792 5.05852C70.448 5.11279 70.6987 5.21359 70.9313 5.36091C71.1665 5.50823 71.3591 5.71887 71.509 5.99284C71.6589 6.26422 71.7339 6.61701 71.7339 7.05122V11.0056H70.6018V10.1915H70.5553C70.4803 10.3414 70.3679 10.4887 70.218 10.6334C70.0681 10.7782 69.8756 10.8984 69.6404 10.994C69.4052 11.0896 69.1234 11.1374 68.7952 11.1374ZM69.0472 10.207C69.3677 10.207 69.6416 10.1437 69.8691 10.017C70.0991 9.89037 70.2736 9.72496 70.3925 9.52078C70.5139 9.31401 70.5747 9.09303 70.5747 8.85784V8.09022C70.5333 8.13157 70.4532 8.17034 70.3343 8.20652C70.218 8.24012 70.0849 8.26985 69.935 8.29569C69.7851 8.31895 69.6391 8.34092 69.4969 8.3616C69.3548 8.37969 69.2359 8.3952 69.1402 8.40812C68.9154 8.43655 68.7099 8.48437 68.5238 8.55156C68.3403 8.61876 68.193 8.71569 68.0819 8.84233C67.9733 8.96639 67.919 9.1318 67.919 9.33857C67.919 9.62545 68.025 9.84256 68.2369 9.98988C68.4489 10.1346 68.719 10.207 69.0472 10.207ZM74.4137 9.38121L77.0384 5.05076H78.2867V11.0056H77.1508V6.67129L74.5378 11.0056H73.2778V5.05076H74.4137V9.38121ZM76.5421 3.0348H77.4958C77.4958 3.47159 77.3408 3.82697 77.0306 4.10093C76.723 4.37231 76.3069 4.508 75.7823 4.508C75.2602 4.508 74.8454 4.37231 74.5378 4.10093C74.2302 3.82697 74.0764 3.47159 74.0764 3.0348H75.0263C75.0263 3.22864 75.0831 3.40051 75.1969 3.55042C75.3106 3.69774 75.5057 3.7714 75.7823 3.7714C76.0536 3.7714 76.2475 3.69774 76.3638 3.55042C76.4827 3.4031 76.5421 3.23122 76.5421 3.0348ZM83.881 7.52807V8.53218H80.6555V7.52807H83.881ZM80.9811 5.05076V11.0056H79.8452V5.05076H80.9811ZM84.6913 5.05076V11.0056H83.5592V5.05076H84.6913Z" fill="#C3C2C3"/>
<path d="M66.3245 23.3735V27.5493H58.3658L57.8746 29.8092L57.9237 29.8583C58.9799 29.0723 60.3801 28.8512 61.6574 28.8512C64.7033 28.8512 67.2334 30.6198 67.2334 34.6482C67.2334 38.1117 64.5068 40.6664 59.5695 40.6664C53.2566 40.6664 52.1021 36.7853 52.2495 35.0904H57.0885C57.1868 35.5325 57.4324 35.9501 57.7763 36.2203C58.2676 36.6133 58.9554 36.7853 59.7169 36.7853C61.1415 36.7853 62.3206 35.8519 62.3206 34.5009C62.3206 33.0025 61.3381 32.1182 59.8642 32.1182C58.7097 32.1182 57.8991 32.4375 57.3833 33.2235H52.8144L54.583 23.3735H66.3245ZM73.8648 31.9217C73.8648 33.7148 73.9631 36.9081 76.444 36.9081C78.9495 36.9081 79.0723 33.7394 79.0723 31.9217C79.0723 30.1531 78.9495 26.9352 76.4931 26.9352C73.9631 26.9352 73.8648 30.0794 73.8648 31.9217ZM69.1977 31.9217C69.1977 25.314 73.3735 23.177 76.444 23.177C79.5636 23.177 83.7394 25.314 83.7394 31.9217C83.7394 38.5293 79.5636 40.6664 76.4686 40.6664C73.3735 40.6664 69.1977 38.5293 69.1977 31.9217Z" fill="#C3C2C3"/>
<g filter="url(#filter0_d_131_5304)">
<circle cx="40.9401" cy="31.3871" r="5.45861" fill="white"/>
<circle cx="40.9401" cy="31.3871" r="4.77629" stroke="white" stroke-width="1.36465"/>
</g>
<defs>
<filter id="filter0_d_131_5304" x="32.3427" y="22.7898" width="17.1946" height="17.1946" filterUnits="userSpaceOnUse" color-interpolation-filters="sRGB">
<feFlood flood-opacity="0" result="BackgroundImageFix"/>
<feColorMatrix in="SourceAlpha" type="matrix" values="0 0 0 0 0 0 0 0 0 0 0 0 0 0 0 0 0 0 127 0" result="hardAlpha"/>
<feOffset/>
<feGaussianBlur stdDeviation="1.56935"/>
<feComposite in2="hardAlpha" operator="out"/>
<feColorMatrix type="matrix" values="0 0 0 0 0.8125 0 0 0 0 0.719439 0 0 0 0 0.390625 0 0 0 1 0"/>
<feBlend mode="normal" in2="BackgroundImageFix" result="effect1_dropShadow_131_5304"/>
<feBlend mode="normal" in="SourceGraphic" in2="effect1_dropShadow_131_5304" result="shape"/>
</filter>
</defs>
</svg>
