<svg width="69" height="12" viewBox="0 0 69 12" fill="none" xmlns="http://www.w3.org/2000/svg">
<path d="M9.98407 11.424H6.49607L3.10407 5.63201V11.424H6.65188e-05V1.04904e-05H3.10407V5.53601L6.36807 1.04904e-05H9.76007L6.24007 5.45601L9.98407 11.424ZM15.3003 2.41601C16.4203 2.41601 17.295 2.69334 17.9243 3.24801C18.5536 3.80268 18.8683 4.59201 18.8683 5.61601V11.424H16.7563L16.1643 10.256H16.1003C15.855 10.5653 15.599 10.8213 15.3323 11.024C15.0763 11.216 14.7776 11.3547 14.4363 11.44C14.095 11.536 13.679 11.584 13.1883 11.584C12.6763 11.584 12.2176 11.4827 11.8123 11.28C11.407 11.0667 11.087 10.752 10.8523 10.336C10.6176 9.90934 10.5003 9.37068 10.5003 8.72001C10.5003 7.77068 10.8256 7.06668 11.4763 6.60801C12.1376 6.14934 13.0923 5.89334 14.3403 5.84001L15.8123 5.79201V5.66401C15.8123 5.26934 15.7163 4.99201 15.5243 4.83201C15.3323 4.66134 15.071 4.57601 14.7403 4.57601C14.3883 4.57601 13.999 4.64001 13.5723 4.76801C13.1456 4.88534 12.7136 5.04001 12.2763 5.23201L11.3963 3.21601C11.9083 2.94934 12.4843 2.75201 13.1243 2.62401C13.775 2.48534 14.5003 2.41601 15.3003 2.41601ZM15.1243 7.50401C14.5696 7.52534 14.175 7.62668 13.9403 7.80801C13.7163 7.97868 13.6043 8.22401 13.6043 8.54401C13.6043 8.84268 13.6843 9.06668 13.8443 9.21601C14.0043 9.35468 14.2177 9.42401 14.4843 9.42401C14.8577 9.42401 15.1723 9.30668 15.4283 9.07201C15.695 8.83734 15.8283 8.53334 15.8283 8.16001V7.47201L15.1243 7.50401ZM29.1571 4.84801H26.2451V11.424H23.1891V4.84801H20.2771V2.57601H29.1571V4.84801ZM34.9097 2.41601C36.0297 2.41601 36.9044 2.69334 37.5337 3.24801C38.163 3.80268 38.4777 4.59201 38.4777 5.61601V11.424H36.3657L35.7737 10.256H35.7097C35.4644 10.5653 35.2084 10.8213 34.9417 11.024C34.6857 11.216 34.387 11.3547 34.0457 11.44C33.7044 11.536 33.2884 11.584 32.7977 11.584C32.2857 11.584 31.827 11.4827 31.4217 11.28C31.0164 11.0667 30.6964 10.752 30.4617 10.336C30.227 9.90934 30.1097 9.37068 30.1097 8.72001C30.1097 7.77068 30.435 7.06668 31.0857 6.60801C31.747 6.14934 32.7017 5.89334 33.9497 5.84001L35.4217 5.79201V5.66401C35.4217 5.26934 35.3257 4.99201 35.1337 4.83201C34.9417 4.66134 34.6804 4.57601 34.3497 4.57601C33.9977 4.57601 33.6084 4.64001 33.1817 4.76801C32.755 4.88534 32.323 5.04001 31.8857 5.23201L31.0057 3.21601C31.5177 2.94934 32.0937 2.75201 32.7337 2.62401C33.3844 2.48534 34.1097 2.41601 34.9097 2.41601ZM34.7337 7.50401C34.179 7.52534 33.7844 7.62668 33.5497 7.80801C33.3257 7.97868 33.2137 8.22401 33.2137 8.54401C33.2137 8.84268 33.2937 9.06668 33.4537 9.21601C33.6137 9.35468 33.827 9.42401 34.0937 9.42401C34.467 9.42401 34.7817 9.30668 35.0377 9.07201C35.3044 8.83734 35.4377 8.53334 35.4377 8.16001V7.47201L34.7337 7.50401ZM49.4384 11.424H46.3824V4.84801H44.5904C44.4838 6.07468 44.3504 7.12001 44.1904 7.98401C44.0304 8.83734 43.8171 9.53068 43.5504 10.064C43.2838 10.5867 42.9424 10.9707 42.5264 11.216C42.1211 11.4613 41.6144 11.584 41.0064 11.584C40.7718 11.584 40.5264 11.5627 40.2704 11.52C40.0251 11.4773 39.8118 11.4187 39.6304 11.344V9.07201C39.7371 9.12534 39.8438 9.16268 39.9504 9.18401C40.0571 9.20534 40.1798 9.21601 40.3184 9.21601C40.4464 9.21601 40.5691 9.17334 40.6864 9.08801C40.8038 9.00268 40.9104 8.83734 41.0064 8.59201C41.1131 8.34668 41.2144 7.97868 41.3104 7.48801C41.4064 6.99734 41.4971 6.35734 41.5824 5.56801C41.6784 4.76801 41.7638 3.77068 41.8384 2.57601H49.4384V11.424ZM59.9908 6.97601C59.9908 7.71201 59.8895 8.36801 59.6868 8.94401C59.4842 9.52001 59.1908 10.0053 58.8068 10.4C58.4228 10.784 57.9588 11.0773 57.4148 11.28C56.8708 11.4827 56.2522 11.584 55.5588 11.584C54.9188 11.584 54.3268 11.4827 53.7828 11.28C53.2495 11.0773 52.7855 10.784 52.3908 10.4C52.0068 10.0053 51.7028 9.52001 51.4788 8.94401C51.2655 8.36801 51.1588 7.71201 51.1588 6.97601C51.1588 5.99468 51.3348 5.16801 51.6868 4.49601C52.0495 3.81334 52.5615 3.29601 53.2228 2.94401C53.8841 2.59201 54.6788 2.41601 55.6068 2.41601C56.4601 2.41601 57.2121 2.59201 57.8628 2.94401C58.5241 3.29601 59.0415 3.81334 59.4148 4.49601C59.7988 5.16801 59.9908 5.99468 59.9908 6.97601ZM54.2628 6.97601C54.2628 7.47734 54.3055 7.90401 54.3908 8.25601C54.4761 8.60801 54.6148 8.87468 54.8068 9.05601C55.0095 9.22668 55.2708 9.31201 55.5908 9.31201C55.9108 9.31201 56.1615 9.22668 56.3428 9.05601C56.5348 8.87468 56.6735 8.60801 56.7588 8.25601C56.8441 7.90401 56.8868 7.47734 56.8868 6.97601C56.8868 6.47468 56.8441 6.05334 56.7588 5.71201C56.6735 5.37068 56.5348 5.11468 56.3428 4.94401C56.1508 4.77334 55.8948 4.68801 55.5748 4.68801C55.1161 4.68801 54.7801 4.88001 54.5668 5.26401C54.3642 5.64801 54.2628 6.21868 54.2628 6.97601ZM68.3063 2.57601V4.84801H64.7863V11.424H61.7303V2.57601H68.3063Z" fill="#C3C2C3"/>
</svg>
