<svg width="84" height="12" viewBox="0 0 84 12" fill="none" xmlns="http://www.w3.org/2000/svg">
<path d="M9.98407 11.424H6.49607L3.10407 5.63201V11.424H6.65188e-05V1.04904e-05H3.10407V5.53601L6.36807 1.04904e-05H9.76007L6.24007 5.45601L9.98407 11.424ZM19.4283 6.97601C19.4283 7.71201 19.327 8.36801 19.1243 8.94401C18.9217 9.52001 18.6283 10.0053 18.2443 10.4C17.8603 10.784 17.3963 11.0773 16.8523 11.28C16.3083 11.4827 15.6897 11.584 14.9963 11.584C14.3563 11.584 13.7643 11.4827 13.2203 11.28C12.687 11.0773 12.223 10.784 11.8283 10.4C11.4443 10.0053 11.1403 9.52001 10.9163 8.94401C10.703 8.36801 10.5963 7.71201 10.5963 6.97601C10.5963 5.99468 10.7723 5.16801 11.1243 4.49601C11.487 3.81334 11.999 3.29601 12.6603 2.94401C13.3216 2.59201 14.1163 2.41601 15.0443 2.41601C15.8976 2.41601 16.6496 2.59201 17.3003 2.94401C17.9616 3.29601 18.479 3.81334 18.8523 4.49601C19.2363 5.16801 19.4283 5.99468 19.4283 6.97601ZM13.7003 6.97601C13.7003 7.47734 13.743 7.90401 13.8283 8.25601C13.9136 8.60801 14.0523 8.87468 14.2443 9.05601C14.447 9.22668 14.7083 9.31201 15.0283 9.31201C15.3483 9.31201 15.599 9.22668 15.7803 9.05601C15.9723 8.87468 16.111 8.60801 16.1963 8.25601C16.2816 7.90401 16.3243 7.47734 16.3243 6.97601C16.3243 6.47468 16.2816 6.05334 16.1963 5.71201C16.111 5.37068 15.9723 5.11468 15.7803 4.94401C15.5883 4.77334 15.3323 4.68801 15.0123 4.68801C14.5536 4.68801 14.2176 4.88001 14.0043 5.26401C13.8017 5.64801 13.7003 6.21868 13.7003 6.97601ZM24.2238 2.57601V5.76001H26.6398V2.57601H29.6958V11.424H26.6398V8.03201H24.2238V11.424H21.1678V2.57601H24.2238ZM40.0164 4.84801H37.1044V11.424H34.0484V4.84801H31.1364V2.57601H40.0164V4.84801ZM45.7691 2.41601C46.8891 2.41601 47.7637 2.69334 48.3931 3.24801C49.0224 3.80268 49.3371 4.59201 49.3371 5.61601V11.424H47.2251L46.6331 10.256H46.5691C46.3237 10.5653 46.0677 10.8213 45.8011 11.024C45.5451 11.216 45.2464 11.3547 44.9051 11.44C44.5637 11.536 44.1477 11.584 43.6571 11.584C43.1451 11.584 42.6864 11.4827 42.2811 11.28C41.8757 11.0667 41.5557 10.752 41.3211 10.336C41.0864 9.90934 40.9691 9.37068 40.9691 8.72001C40.9691 7.77068 41.2944 7.06668 41.9451 6.60801C42.6064 6.14934 43.5611 5.89334 44.8091 5.84001L46.2811 5.79201V5.66401C46.2811 5.26934 46.1851 4.99201 45.9931 4.83201C45.8011 4.66134 45.5397 4.57601 45.2091 4.57601C44.8571 4.57601 44.4677 4.64001 44.0411 4.76801C43.6144 4.88534 43.1824 5.04001 42.7451 5.23201L41.8651 3.21601C42.3771 2.94934 42.9531 2.75201 43.5931 2.62401C44.2437 2.48534 44.9691 2.41601 45.7691 2.41601ZM45.5931 7.50401C45.0384 7.52534 44.6437 7.62668 44.4091 7.80801C44.1851 7.97868 44.0731 8.22401 44.0731 8.54401C44.0731 8.84268 44.1531 9.06668 44.3131 9.21601C44.4731 9.35468 44.6864 9.42401 44.9531 9.42401C45.3264 9.42401 45.6411 9.30668 45.8971 9.07201C46.1637 8.83734 46.2971 8.53334 46.2971 8.16001V7.47201L45.5931 7.50401ZM57.6098 2.57601H60.9858L57.6738 6.81601L61.2418 11.424H57.7538L54.4738 6.92801V11.424H51.4178V2.57601H54.4738V6.86401L57.6098 2.57601ZM70.4383 4.84801H67.5263V11.424H64.4703V4.84801H61.5583V2.57601H70.4383V4.84801ZM71.8709 11.424V2.57601H74.9269V5.76001H75.9349C76.8629 5.76001 77.5936 5.86668 78.1269 6.08001C78.6603 6.29334 79.0336 6.60268 79.2469 7.00801C79.4709 7.41334 79.5829 7.90401 79.5829 8.48001C79.5829 9.06668 79.4603 9.58401 79.2149 10.032C78.9696 10.4693 78.5536 10.8107 77.9669 11.056C77.3909 11.3013 76.5963 11.424 75.5829 11.424H71.8709ZM75.4389 9.42401C75.8123 9.42401 76.0843 9.35468 76.2549 9.21601C76.4363 9.07734 76.5269 8.88001 76.5269 8.62401C76.5269 8.34668 76.4523 8.13334 76.3029 7.98401C76.1536 7.83468 75.8549 7.76001 75.4069 7.76001H74.9269V9.42401H75.4389ZM80.5589 11.424V2.57601H83.6149V11.424H80.5589Z" fill="#C3C2C3"/>
</svg>
