<svg width="48" height="11" viewBox="0 0 48 11" fill="none" xmlns="http://www.w3.org/2000/svg">
<rect width="48" height="11" fill="#080808"/>
<path d="M16.0909 8.5L14.1364 5.89205H13.517V8.5H12.6392V2.68182H13.517V5.1392H13.804L16.0028 2.68182H17.0739L14.7472 5.28693L17.1619 8.5H16.0909ZM19.1768 8.59659C18.9003 8.59659 18.6503 8.54545 18.4268 8.44318C18.2034 8.33902 18.0263 8.18845 17.8956 7.99148C17.7668 7.79451 17.7024 7.55303 17.7024 7.26705C17.7024 7.02083 17.7498 6.81818 17.8445 6.65909C17.9392 6.5 18.067 6.37405 18.228 6.28125C18.389 6.18845 18.5689 6.11837 18.7678 6.07102C18.9666 6.02367 19.1693 5.98769 19.3757 5.96307C19.6371 5.93277 19.8492 5.90814 20.0121 5.8892C20.175 5.86837 20.2933 5.83523 20.3672 5.78977C20.4411 5.74432 20.478 5.67045 20.478 5.56818V5.5483C20.478 5.30019 20.4079 5.10795 20.2678 4.97159C20.1295 4.83523 19.9231 4.76705 19.6484 4.76705C19.3625 4.76705 19.1371 4.83049 18.9723 4.95739C18.8094 5.08239 18.6967 5.22159 18.6342 5.375L17.8359 5.19318C17.9306 4.92803 18.0689 4.71402 18.2507 4.55114C18.4344 4.38636 18.6456 4.26705 18.8842 4.19318C19.1229 4.11742 19.3738 4.07955 19.6371 4.07955C19.8113 4.07955 19.996 4.10038 20.1911 4.14205C20.388 4.18182 20.5717 4.25568 20.7422 4.36364C20.9145 4.47159 21.0556 4.62595 21.1655 4.8267C21.2753 5.02557 21.3303 5.28409 21.3303 5.60227V8.5H20.5007V7.90341H20.4666C20.4117 8.01326 20.3293 8.12121 20.2195 8.22727C20.1096 8.33333 19.9685 8.4214 19.7962 8.49148C19.6238 8.56155 19.4174 8.59659 19.1768 8.59659ZM19.3615 7.91477C19.5964 7.91477 19.7971 7.86837 19.9638 7.77557C20.1323 7.68277 20.2602 7.56155 20.3473 7.41193C20.4363 7.26042 20.4808 7.09848 20.4808 6.92614V6.36364C20.4505 6.39394 20.3918 6.42235 20.3047 6.44886C20.2195 6.47348 20.1219 6.49527 20.0121 6.5142C19.9022 6.53125 19.7952 6.54735 19.6911 6.5625C19.5869 6.57576 19.4998 6.58712 19.4297 6.59659C19.2649 6.61742 19.1143 6.65246 18.978 6.7017C18.8435 6.75095 18.7356 6.82197 18.6541 6.91477C18.5746 7.00568 18.5348 7.12689 18.5348 7.27841C18.5348 7.48864 18.6125 7.64773 18.7678 7.75568C18.9231 7.86174 19.121 7.91477 19.3615 7.91477ZM22.4616 10.1364V4.13636H23.2912V4.84375H23.3622C23.4115 4.75284 23.4825 4.64773 23.5753 4.52841C23.6681 4.40909 23.7969 4.30492 23.9616 4.21591C24.1264 4.125 24.3442 4.07955 24.6151 4.07955C24.9673 4.07955 25.2817 4.16856 25.5582 4.34659C25.8348 4.52462 26.0516 4.78125 26.2088 5.11648C26.3679 5.4517 26.4474 5.85511 26.4474 6.3267C26.4474 6.7983 26.3688 7.20265 26.2116 7.53977C26.0545 7.875 25.8385 8.13352 25.5639 8.31534C25.2893 8.49527 24.9759 8.58523 24.6236 8.58523C24.3584 8.58523 24.1416 8.54072 23.973 8.4517C23.8063 8.36269 23.6757 8.25852 23.581 8.1392C23.4863 8.01989 23.4134 7.91383 23.3622 7.82102H23.3111V10.1364H22.4616ZM23.294 6.31818C23.294 6.625 23.3385 6.89394 23.4276 7.125C23.5166 7.35606 23.6454 7.53693 23.8139 7.66761C23.9825 7.7964 24.1889 7.8608 24.4332 7.8608C24.687 7.8608 24.8991 7.79356 25.0696 7.65909C25.2401 7.52273 25.3688 7.33807 25.456 7.10511C25.545 6.87216 25.5895 6.60985 25.5895 6.31818C25.5895 6.0303 25.5459 5.77178 25.4588 5.54261C25.3736 5.31345 25.2448 5.13258 25.0724 5C24.902 4.86742 24.6889 4.80114 24.4332 4.80114C24.187 4.80114 23.9787 4.86458 23.8082 4.99148C23.6397 5.11837 23.5118 5.29545 23.4247 5.52273C23.3376 5.75 23.294 6.01515 23.294 6.31818ZM26.8736 4.86932V4.13636H30.5554V4.86932H29.1321V8.5H28.3026V4.86932H26.8736ZM32.5206 8.59659C32.2441 8.59659 31.9941 8.54545 31.7706 8.44318C31.5471 8.33902 31.37 8.18845 31.2393 7.99148C31.1106 7.79451 31.0462 7.55303 31.0462 7.26705C31.0462 7.02083 31.0935 6.81818 31.1882 6.65909C31.2829 6.5 31.4107 6.37405 31.5717 6.28125C31.7327 6.18845 31.9126 6.11837 32.1115 6.07102C32.3104 6.02367 32.513 5.98769 32.7195 5.96307C32.9808 5.93277 33.1929 5.90814 33.3558 5.8892C33.5187 5.86837 33.6371 5.83523 33.7109 5.78977C33.7848 5.74432 33.8217 5.67045 33.8217 5.56818V5.5483C33.8217 5.30019 33.7517 5.10795 33.6115 4.97159C33.4732 4.83523 33.2668 4.76705 32.9922 4.76705C32.7062 4.76705 32.4808 4.83049 32.3161 4.95739C32.1532 5.08239 32.0405 5.22159 31.978 5.375L31.1797 5.19318C31.2744 4.92803 31.4126 4.71402 31.5945 4.55114C31.7782 4.38636 31.9893 4.26705 32.228 4.19318C32.4666 4.11742 32.7176 4.07955 32.9808 4.07955C33.1551 4.07955 33.3397 4.10038 33.5348 4.14205C33.7318 4.18182 33.9155 4.25568 34.0859 4.36364C34.2583 4.47159 34.3994 4.62595 34.5092 4.8267C34.6191 5.02557 34.674 5.28409 34.674 5.60227V8.5H33.8445V7.90341H33.8104C33.7554 8.01326 33.6731 8.12121 33.5632 8.22727C33.4534 8.33333 33.3123 8.4214 33.1399 8.49148C32.9676 8.56155 32.7611 8.59659 32.5206 8.59659ZM32.7053 7.91477C32.9401 7.91477 33.1409 7.86837 33.3075 7.77557C33.4761 7.68277 33.6039 7.56155 33.6911 7.41193C33.7801 7.26042 33.8246 7.09848 33.8246 6.92614V6.36364C33.7943 6.39394 33.7356 6.42235 33.6484 6.44886C33.5632 6.47348 33.4657 6.49527 33.3558 6.5142C33.246 6.53125 33.139 6.54735 33.0348 6.5625C32.9306 6.57576 32.8435 6.58712 32.7734 6.59659C32.6087 6.61742 32.4581 6.65246 32.3217 6.7017C32.1873 6.75095 32.0793 6.82197 31.9979 6.91477C31.9183 7.00568 31.8786 7.12689 31.8786 7.27841C31.8786 7.48864 31.9562 7.64773 32.1115 7.75568C32.2668 7.86174 32.4647 7.91477 32.7053 7.91477Z" fill="#C3C2C3"/>
</svg>
