<svg width="56" height="11" viewBox="0 0 56 11" fill="none" xmlns="http://www.w3.org/2000/svg">
<rect width="56" height="11" fill="black"/>
<path d="M5.6392 8.5V2.68182H7.76989C8.18277 2.68182 8.52462 2.75 8.79545 2.88636C9.06629 3.02083 9.26894 3.2036 9.40341 3.43466C9.53788 3.66383 9.60511 3.92235 9.60511 4.21023C9.60511 4.45265 9.56061 4.6572 9.47159 4.82386C9.38258 4.98864 9.26326 5.12121 9.11364 5.22159C8.96591 5.32008 8.80303 5.39205 8.625 5.4375V5.49432C8.81818 5.50379 9.00663 5.56629 9.19034 5.68182C9.37595 5.79545 9.52936 5.95739 9.65057 6.16761C9.77178 6.37784 9.83239 6.63352 9.83239 6.93466C9.83239 7.23201 9.76231 7.49905 9.62216 7.7358C9.4839 7.97064 9.26989 8.1572 8.98011 8.29545C8.69034 8.43182 8.32008 8.5 7.86932 8.5H5.6392ZM6.51705 7.74716H7.78409C8.20455 7.74716 8.50568 7.66572 8.6875 7.50284C8.86932 7.33996 8.96023 7.13636 8.96023 6.89205C8.96023 6.70833 8.91383 6.53977 8.82102 6.38636C8.72822 6.23295 8.59564 6.1108 8.4233 6.01989C8.25284 5.92898 8.05019 5.88352 7.81534 5.88352H6.51705V7.74716ZM6.51705 5.19886H7.69318C7.89015 5.19886 8.06723 5.16098 8.22443 5.08523C8.38352 5.00947 8.50947 4.90341 8.60227 4.76705C8.69697 4.62879 8.74432 4.46591 8.74432 4.27841C8.74432 4.03788 8.66004 3.83617 8.49148 3.6733C8.32292 3.51042 8.06439 3.42898 7.71591 3.42898H6.51705V5.19886ZM10.8054 10.1364V4.13636H11.6349V4.84375H11.706C11.7552 4.75284 11.8262 4.64773 11.919 4.52841C12.0118 4.40909 12.1406 4.30492 12.3054 4.21591C12.4702 4.125 12.688 4.07955 12.9588 4.07955C13.3111 4.07955 13.6255 4.16856 13.902 4.34659C14.1785 4.52462 14.3954 4.78125 14.5526 5.11648C14.7116 5.4517 14.7912 5.85511 14.7912 6.3267C14.7912 6.7983 14.7126 7.20265 14.5554 7.53977C14.3982 7.875 14.1823 8.13352 13.9077 8.31534C13.633 8.49527 13.3196 8.58523 12.9673 8.58523C12.7022 8.58523 12.4853 8.54072 12.3168 8.4517C12.1501 8.36269 12.0194 8.25852 11.9247 8.1392C11.83 8.01989 11.7571 7.91383 11.706 7.82102H11.6548V10.1364H10.8054ZM11.6378 6.31818C11.6378 6.625 11.6823 6.89394 11.7713 7.125C11.8603 7.35606 11.9891 7.53693 12.1577 7.66761C12.3262 7.7964 12.5327 7.8608 12.777 7.8608C13.0308 7.8608 13.2429 7.79356 13.4134 7.65909C13.5838 7.52273 13.7126 7.33807 13.7997 7.10511C13.8887 6.87216 13.9332 6.60985 13.9332 6.31818C13.9332 6.0303 13.8897 5.77178 13.8026 5.54261C13.7173 5.31345 13.5885 5.13258 13.4162 5C13.2457 4.86742 13.0327 4.80114 12.777 4.80114C12.5308 4.80114 12.3224 4.86458 12.152 4.99148C11.9834 5.11837 11.8556 5.29545 11.7685 5.52273C11.6813 5.75 11.6378 6.01515 11.6378 6.31818ZM17.6236 8.58807C17.1937 8.58807 16.8234 8.49621 16.5128 8.3125C16.2041 8.12689 15.9654 7.86648 15.7969 7.53125C15.6302 7.19413 15.5469 6.79924 15.5469 6.34659C15.5469 5.89962 15.6302 5.50568 15.7969 5.16477C15.9654 4.82386 16.2003 4.55777 16.5014 4.36648C16.8045 4.17519 17.1586 4.07955 17.5639 4.07955C17.8101 4.07955 18.0488 4.12027 18.2798 4.2017C18.5109 4.28314 18.7183 4.41098 18.902 4.58523C19.0857 4.75947 19.2306 4.9858 19.3366 5.2642C19.4427 5.54072 19.4957 5.87689 19.4957 6.27273V6.57386H16.027V5.9375H18.6634C18.6634 5.71402 18.6179 5.5161 18.527 5.34375C18.4361 5.16951 18.3082 5.0322 18.1435 4.93182C17.9806 4.83144 17.7893 4.78125 17.5696 4.78125C17.331 4.78125 17.1226 4.83996 16.9446 4.95739C16.7685 5.07292 16.6321 5.22443 16.5355 5.41193C16.4408 5.59754 16.3935 5.79924 16.3935 6.01705V6.5142C16.3935 6.80587 16.4446 7.05398 16.5469 7.25852C16.651 7.46307 16.7959 7.61932 16.9815 7.72727C17.1671 7.83333 17.384 7.88636 17.6321 7.88636C17.7931 7.88636 17.9399 7.86364 18.0724 7.81818C18.205 7.77083 18.3196 7.70076 18.4162 7.60795C18.5128 7.51515 18.5866 7.40057 18.6378 7.2642L19.4418 7.40909C19.3774 7.64583 19.2618 7.85322 19.0952 8.03125C18.9304 8.20739 18.723 8.3447 18.473 8.44318C18.2249 8.53977 17.9418 8.58807 17.6236 8.58807ZM22.8871 7.44886L24.2962 4.13636H25.0291L23.2024 8.5H22.5717L20.782 4.13636H21.5064L22.8871 7.44886ZM21.2706 4.13636V8.5H20.4382V4.13636H21.2706ZM24.5263 8.5V4.13636H25.353V8.5H24.5263ZM29.0874 8.5V4.8608H28.0419C27.7938 4.8608 27.6006 4.91856 27.4624 5.03409C27.3241 5.14962 27.255 5.30114 27.255 5.48864C27.255 5.67424 27.3184 5.82386 27.4453 5.9375C27.5741 6.04924 27.754 6.10511 27.9851 6.10511H29.3345V6.79261H27.9851C27.6631 6.79261 27.3847 6.73958 27.1499 6.63352C26.9169 6.52557 26.737 6.37311 26.6101 6.17614C26.4851 5.97917 26.4226 5.74621 26.4226 5.47727C26.4226 5.20265 26.487 4.96591 26.6158 4.76705C26.7464 4.56629 26.933 4.41098 27.1754 4.30114C27.4197 4.19129 27.7086 4.13636 28.0419 4.13636H29.8857V8.5H29.0874ZM26.2237 8.5L27.4538 6.29545H28.3232L27.093 8.5H26.2237ZM35.9233 4.13636V4.86932H33.9716V8.5H33.1335V4.13636H35.9233ZM38.456 8.58807C38.0469 8.58807 37.6899 8.49432 37.3849 8.30682C37.08 8.11932 36.8433 7.85701 36.6747 7.51989C36.5062 7.18277 36.4219 6.78883 36.4219 6.33807C36.4219 5.88542 36.5062 5.48958 36.6747 5.15057C36.8433 4.81155 37.08 4.5483 37.3849 4.3608C37.6899 4.1733 38.0469 4.07955 38.456 4.07955C38.8651 4.07955 39.2221 4.1733 39.527 4.3608C39.8319 4.5483 40.0687 4.81155 40.2372 5.15057C40.4058 5.48958 40.4901 5.88542 40.4901 6.33807C40.4901 6.78883 40.4058 7.18277 40.2372 7.51989C40.0687 7.85701 39.8319 8.11932 39.527 8.30682C39.2221 8.49432 38.8651 8.58807 38.456 8.58807ZM38.4588 7.875C38.724 7.875 38.9437 7.80492 39.1179 7.66477C39.2921 7.52462 39.4209 7.33807 39.5043 7.10511C39.5895 6.87216 39.6321 6.61553 39.6321 6.33523C39.6321 6.05682 39.5895 5.80114 39.5043 5.56818C39.4209 5.33333 39.2921 5.14489 39.1179 5.00284C38.9437 4.8608 38.724 4.78977 38.4588 4.78977C38.1918 4.78977 37.9702 4.8608 37.794 5.00284C37.6198 5.14489 37.4901 5.33333 37.4048 5.56818C37.3215 5.80114 37.2798 6.05682 37.2798 6.33523C37.2798 6.61553 37.3215 6.87216 37.4048 7.10511C37.4901 7.33807 37.6198 7.52462 37.794 7.66477C37.9702 7.80492 38.1918 7.875 38.4588 7.875ZM41.0121 9.75852V7.7642H41.3672C41.4581 7.68087 41.5348 7.58144 41.5973 7.46591C41.6617 7.35038 41.7157 7.21307 41.7592 7.05398C41.8047 6.89489 41.8426 6.70928 41.8729 6.49716C41.9032 6.28314 41.9297 6.03883 41.9524 5.7642L42.0888 4.13636H45.0547V7.7642H45.7251V9.75852H44.8956V8.5H41.853V9.75852H41.0121ZM42.2763 7.7642H44.2251V4.86364H42.8501L42.7592 5.7642C42.7157 6.22254 42.6607 6.62027 42.5945 6.95739C42.5282 7.29261 42.4221 7.56155 42.2763 7.7642ZM47.8253 8.59659C47.5488 8.59659 47.2988 8.54545 47.0753 8.44318C46.8518 8.33902 46.6747 8.18845 46.544 7.99148C46.4152 7.79451 46.3509 7.55303 46.3509 7.26705C46.3509 7.02083 46.3982 6.81818 46.4929 6.65909C46.5876 6.5 46.7154 6.37405 46.8764 6.28125C47.0374 6.18845 47.2173 6.11837 47.4162 6.07102C47.6151 6.02367 47.8177 5.98769 48.0241 5.96307C48.2855 5.93277 48.4976 5.90814 48.6605 5.8892C48.8234 5.86837 48.9418 5.83523 49.0156 5.78977C49.0895 5.74432 49.1264 5.67045 49.1264 5.56818V5.5483C49.1264 5.30019 49.0563 5.10795 48.9162 4.97159C48.7779 4.83523 48.5715 4.76705 48.2969 4.76705C48.0109 4.76705 47.7855 4.83049 47.6207 4.95739C47.4579 5.08239 47.3452 5.22159 47.2827 5.375L46.4844 5.19318C46.5791 4.92803 46.7173 4.71402 46.8991 4.55114C47.0829 4.38636 47.294 4.26705 47.5327 4.19318C47.7713 4.11742 48.0223 4.07955 48.2855 4.07955C48.4598 4.07955 48.6444 4.10038 48.8395 4.14205C49.0365 4.18182 49.2202 4.25568 49.3906 4.36364C49.563 4.47159 49.7041 4.62595 49.8139 4.8267C49.9238 5.02557 49.9787 5.28409 49.9787 5.60227V8.5H49.1491V7.90341H49.1151C49.0601 8.01326 48.9777 8.12121 48.8679 8.22727C48.758 8.33333 48.617 8.4214 48.4446 8.49148C48.2723 8.56155 48.0658 8.59659 47.8253 8.59659ZM48.0099 7.91477C48.2448 7.91477 48.4455 7.86837 48.6122 7.77557C48.7808 7.68277 48.9086 7.56155 48.9957 7.41193C49.0848 7.26042 49.1293 7.09848 49.1293 6.92614V6.36364C49.099 6.39394 49.0402 6.42235 48.9531 6.44886C48.8679 6.47348 48.7704 6.49527 48.6605 6.5142C48.5507 6.53125 48.4437 6.54735 48.3395 6.5625C48.2353 6.57576 48.1482 6.58712 48.0781 6.59659C47.9134 6.61742 47.7628 6.65246 47.6264 6.7017C47.492 6.75095 47.384 6.82197 47.3026 6.91477C47.223 7.00568 47.1832 7.12689 47.1832 7.27841C47.1832 7.48864 47.2609 7.64773 47.4162 7.75568C47.5715 7.86174 47.7694 7.91477 48.0099 7.91477Z" fill="#C3C2C3"/>
</svg>
