<svg width="40" height="11" viewBox="0 0 40 11" fill="none" xmlns="http://www.w3.org/2000/svg">
<rect width="40" height="11" fill="black"/>
<path d="M10.6932 5.59091C10.6932 6.21212 10.5795 6.74621 10.3523 7.19318C10.125 7.63826 9.81345 7.98106 9.41761 8.22159C9.02367 8.46023 8.57576 8.57955 8.07386 8.57955C7.57008 8.57955 7.12027 8.46023 6.72443 8.22159C6.33049 7.98106 6.01989 7.63731 5.79261 7.19034C5.56534 6.74337 5.4517 6.21023 5.4517 5.59091C5.4517 4.9697 5.56534 4.43655 5.79261 3.99148C6.01989 3.54451 6.33049 3.2017 6.72443 2.96307C7.12027 2.72254 7.57008 2.60227 8.07386 2.60227C8.57576 2.60227 9.02367 2.72254 9.41761 2.96307C9.81345 3.2017 10.125 3.54451 10.3523 3.99148C10.5795 4.43655 10.6932 4.9697 10.6932 5.59091ZM9.82386 5.59091C9.82386 5.11742 9.74716 4.71875 9.59375 4.39489C9.44223 4.06913 9.2339 3.82292 8.96875 3.65625C8.70549 3.48769 8.4072 3.40341 8.07386 3.40341C7.73864 3.40341 7.43939 3.48769 7.17614 3.65625C6.91288 3.82292 6.70455 4.06913 6.55114 4.39489C6.39962 4.71875 6.32386 5.11742 6.32386 5.59091C6.32386 6.06439 6.39962 6.46402 6.55114 6.78977C6.70455 7.11364 6.91288 7.35985 7.17614 7.52841C7.43939 7.69508 7.73864 7.77841 8.07386 7.77841C8.4072 7.77841 8.70549 7.69508 8.96875 7.52841C9.2339 7.35985 9.44223 7.11364 9.59375 6.78977C9.74716 6.46402 9.82386 6.06439 9.82386 5.59091ZM14.6768 5.9517V6.6875H12.3132V5.9517H14.6768ZM12.5518 4.13636V8.5H11.7195V4.13636H12.5518ZM15.2706 4.13636V8.5H14.4411V4.13636H15.2706ZM16.0632 8.5L16.0604 7.7642H16.2166C16.3378 7.7642 16.4392 7.73864 16.5206 7.6875C16.6039 7.63447 16.6721 7.54545 16.7251 7.42045C16.7782 7.29545 16.8189 7.12311 16.8473 6.90341C16.8757 6.68182 16.8965 6.40341 16.9098 6.06818L16.9865 4.13636H20.032V8.5H19.1996V4.86932H17.7734L17.7053 6.35227C17.6882 6.71212 17.6513 7.02652 17.5945 7.29545C17.5395 7.56439 17.459 7.78883 17.353 7.96875C17.2469 8.14678 17.1106 8.2803 16.9439 8.36932C16.7772 8.45644 16.5746 8.5 16.3359 8.5H16.0632ZM22.4347 8.59659C22.1581 8.59659 21.9081 8.54545 21.6847 8.44318C21.4612 8.33902 21.2841 8.18845 21.1534 7.99148C21.0246 7.79451 20.9602 7.55303 20.9602 7.26705C20.9602 7.02083 21.0076 6.81818 21.1023 6.65909C21.197 6.5 21.3248 6.37405 21.4858 6.28125C21.6468 6.18845 21.8267 6.11837 22.0256 6.07102C22.2244 6.02367 22.4271 5.98769 22.6335 5.96307C22.8949 5.93277 23.107 5.90814 23.2699 5.8892C23.4328 5.86837 23.5511 5.83523 23.625 5.78977C23.6989 5.74432 23.7358 5.67045 23.7358 5.56818V5.5483C23.7358 5.30019 23.6657 5.10795 23.5256 4.97159C23.3873 4.83523 23.1809 4.76705 22.9062 4.76705C22.6203 4.76705 22.3949 4.83049 22.2301 4.95739C22.0672 5.08239 21.9545 5.22159 21.892 5.375L21.0938 5.19318C21.1884 4.92803 21.3267 4.71402 21.5085 4.55114C21.6922 4.38636 21.9034 4.26705 22.142 4.19318C22.3807 4.11742 22.6316 4.07955 22.8949 4.07955C23.0691 4.07955 23.2538 4.10038 23.4489 4.14205C23.6458 4.18182 23.8295 4.25568 24 4.36364C24.1723 4.47159 24.3134 4.62595 24.4233 4.8267C24.5331 5.02557 24.5881 5.28409 24.5881 5.60227V8.5H23.7585V7.90341H23.7244C23.6695 8.01326 23.5871 8.12121 23.4773 8.22727C23.3674 8.33333 23.2263 8.4214 23.054 8.49148C22.8816 8.56155 22.6752 8.59659 22.4347 8.59659ZM22.6193 7.91477C22.8542 7.91477 23.0549 7.86837 23.2216 7.77557C23.3902 7.68277 23.518 7.56155 23.6051 7.41193C23.6941 7.26042 23.7386 7.09848 23.7386 6.92614V6.36364C23.7083 6.39394 23.6496 6.42235 23.5625 6.44886C23.4773 6.47348 23.3797 6.49527 23.2699 6.5142C23.16 6.53125 23.053 6.54735 22.9489 6.5625C22.8447 6.57576 22.7576 6.58712 22.6875 6.59659C22.5227 6.61742 22.3722 6.65246 22.2358 6.7017C22.1013 6.75095 21.9934 6.82197 21.9119 6.91477C21.8324 7.00568 21.7926 7.12689 21.7926 7.27841C21.7926 7.48864 21.8703 7.64773 22.0256 7.75568C22.1809 7.86174 22.3788 7.91477 22.6193 7.91477ZM26.5518 7.30966L28.4751 4.13636H29.3899V8.5H28.5575V5.32386L26.6428 8.5H25.7195V4.13636H26.5518V7.30966ZM28.1115 2.65909H28.8104C28.8104 2.97917 28.6967 3.23958 28.4695 3.44034C28.2441 3.6392 27.9392 3.73864 27.5547 3.73864C27.1721 3.73864 26.8681 3.6392 26.6428 3.44034C26.4174 3.23958 26.3047 2.97917 26.3047 2.65909H27.0007C27.0007 2.80114 27.0424 2.92708 27.1257 3.03693C27.209 3.14489 27.352 3.19886 27.5547 3.19886C27.7536 3.19886 27.8956 3.14489 27.9808 3.03693C28.0679 2.92898 28.1115 2.80303 28.1115 2.65909ZM33.4893 5.9517V6.6875H31.1257V5.9517H33.4893ZM31.3643 4.13636V8.5H30.532V4.13636H31.3643ZM34.0831 4.13636V8.5H33.2536V4.13636H34.0831Z" fill="#C3C2C3"/>
</svg>
