<svg width="40" height="40" viewBox="0 0 40 40" fill="none" xmlns="http://www.w3.org/2000/svg">
<rect width="40" height="40" rx="5" fill="#818081"/>
<path fill-rule="evenodd" clip-rule="evenodd" d="M17.7683 12.143C17.6423 12.2843 17.5763 12.3979 17.6208 12.3933C17.6669 12.3903 17.65 12.4916 17.5824 12.6176C17.5164 12.7451 17.4089 12.8157 17.3459 12.7773C17.2829 12.7389 17.0571 13.063 16.8467 13.4962C16.5318 14.1413 16.4627 14.5084 16.4673 15.5252C16.4704 16.5189 16.5426 16.9014 16.8298 17.4559C17.0264 17.8352 17.3705 18.3436 17.5932 18.5833C17.8159 18.8229 18.12 19.0809 18.2675 19.1592C18.4149 19.236 18.5055 19.2468 18.4702 19.1838C18.4333 19.1208 18.4671 18.9642 18.5439 18.8382C18.6637 18.6432 18.6852 18.6478 18.6868 18.8766C18.6883 19.0256 18.8788 19.2222 19.1122 19.3159C19.3442 19.4081 19.742 19.5033 19.9954 19.5248C20.2488 19.5463 20.6467 19.5048 20.8786 19.4326C21.1458 19.3482 21.301 19.3558 21.301 19.4526C21.301 19.5417 21.4807 19.5171 21.7234 19.3958C21.9553 19.279 22.3823 18.9166 22.6711 18.5894C22.9598 18.2607 23.3223 17.717 23.4744 17.3791C23.671 16.9428 23.7524 16.3853 23.7539 15.4591C23.7554 14.3916 23.6863 14 23.3714 13.3088C23.1595 12.8434 22.9352 12.5147 22.8738 12.5746C22.8108 12.636 22.5543 12.5331 22.3024 12.3442C22.0521 12.1568 21.9138 12.103 21.9952 12.2259C22.1089 12.3949 22.0889 12.4271 21.9154 12.3611C21.7894 12.3119 21.7019 12.1937 21.7234 12.1C21.7449 12.0047 21.6619 11.9433 21.5406 11.9648C21.4192 11.9863 21.2303 12.0892 21.1182 12.1952C20.9554 12.3503 20.9907 12.3703 21.301 12.2981C21.6757 12.2136 21.6773 12.2167 21.3778 12.4548C21.2088 12.5899 20.9155 12.699 20.725 12.6975C20.5084 12.6959 20.3502 12.5792 20.3026 12.3872C20.2258 12.0815 20.2212 12.0815 19.4194 12.3749L18.613 12.6698C18.0217 11.9141 17.9818 11.9049 17.7683 12.143ZM19.1522 21.9101C19.1522 21.9946 19.0139 22.0637 18.845 22.0637C18.676 22.0637 18.5378 22.0991 18.5378 22.1405C18.5378 22.1835 18.6069 22.3556 18.6914 22.5245C18.7938 22.7293 18.7938 22.8061 18.6914 22.7549C18.6069 22.7134 18.5378 22.7826 18.5378 22.9085C18.5378 23.036 18.4687 23.1389 18.3842 23.1389C18.2982 23.1389 18.2675 22.9531 18.3166 22.7165C18.374 22.4359 18.3202 22.2184 18.1553 22.0637C17.9372 21.8595 17.908 21.8595 17.8942 22.0637C17.8865 22.1912 17.8727 22.4155 17.8635 22.5614C17.8543 22.7088 17.7591 22.8302 17.6546 22.8302C17.5486 22.8317 17.4273 22.7288 17.3858 22.6013C17.3397 22.4662 17.2307 22.4185 17.1201 22.4861C16.9865 22.5691 16.9634 22.523 17.0433 22.3325C17.1247 22.1375 17.0817 22.0637 16.8866 22.0607C16.7376 22.0591 16.1509 22.1974 15.5811 22.3679C14.8331 22.5921 14.3446 22.8609 13.8285 23.3309C13.3846 23.7349 12.953 24.3354 12.695 24.9053C12.4569 25.4336 12.2035 26.3844 12.1021 27.1324C11.9608 28.1738 11.9654 28.4794 12.1205 28.6376C12.2419 28.759 12.6858 28.8327 13.2771 28.8296C14.0605 28.8235 14.2217 28.7805 14.1603 28.5916C14.1173 28.4656 14.1526 28.3612 14.2371 28.3612C14.3216 28.3612 14.3907 28.4656 14.3907 28.5916C14.3907 28.7851 14.7056 28.822 16.3106 28.822C17.5394 28.822 18.2029 28.7667 18.1538 28.6684C18.1108 28.5839 17.9894 28.5148 17.885 28.5148C17.779 28.5148 17.693 28.3811 17.693 28.2183C17.693 27.9388 17.7099 27.9372 18.0002 28.1799C18.1692 28.3228 18.3581 28.5255 18.4226 28.63C18.4932 28.7498 18.8849 28.822 19.4594 28.822C20.0922 28.822 20.3809 28.7621 20.384 28.63C20.3855 28.5255 20.6267 28.1615 20.9216 27.8236C21.2165 27.4857 21.4592 27.2783 21.4607 27.3628C21.4638 27.4473 21.2534 27.7929 20.9953 28.1308C20.7357 28.4687 20.5253 28.7636 20.5284 28.7836C20.5315 28.8051 22.1243 28.822 24.0672 28.822C26.7905 28.822 27.5999 28.7789 27.5984 28.63C27.5984 28.5255 27.7197 28.3642 27.8672 28.2736C28.0162 28.1815 28.1713 27.9188 28.2143 27.6869C28.2558 27.4565 28.2389 27.2368 28.1759 27.2C28.1114 27.1631 28.0607 27.0633 28.0607 26.9788C28.0607 26.8943 28.1636 26.8252 28.2911 26.8252C28.4171 26.8252 28.5906 26.687 28.6751 26.518C28.7872 26.2938 28.7611 26.0772 28.5799 25.7116C28.4432 25.4382 28.1022 24.8331 27.8242 24.3677C27.5446 23.9038 27.0869 23.3616 26.8059 23.1619C26.4495 22.9116 26.2468 22.8517 26.1408 22.9638C26.0317 23.079 25.895 23.079 25.68 22.9638C25.4189 22.824 25.4066 22.7795 25.6032 22.6643C25.7967 22.5506 25.7906 22.5291 25.5648 22.5276C25.4158 22.5261 25.2607 22.629 25.2192 22.7549C25.1762 22.8824 25.0733 22.9853 24.9888 22.9853C24.8864 22.9853 24.8864 22.8829 24.9888 22.6781C25.0733 22.5092 25.1424 22.3371 25.1424 22.2941C25.1424 22.2527 24.8475 22.1743 24.4896 22.1221C24.1302 22.0683 23.5942 21.9962 23.2993 21.9608C23.0028 21.924 22.2901 21.8472 21.7126 21.7873C20.7572 21.689 20.6728 21.7043 20.7526 21.9485C20.811 22.1252 20.7619 22.2173 20.6113 22.2173C20.4838 22.2173 20.3809 22.1144 20.3809 21.9869C20.3809 21.8211 20.2104 21.7565 19.7666 21.7565C19.4286 21.7565 19.1522 21.8257 19.1522 21.9101Z" fill="black"/>
<path fill-rule="evenodd" clip-rule="evenodd" d="M18.9586 11.3995C18.6422 11.5208 18.1415 11.8618 17.845 12.1567C17.5486 12.4516 17.3059 12.7465 17.3044 12.8095C17.3028 12.8725 17.504 12.7173 17.7529 12.4639L18.2044 12.0031C18.5162 12.6544 18.5854 12.6743 18.9586 12.5253C19.1905 12.4332 19.6743 12.3287 20.0338 12.295C20.576 12.2443 20.6865 12.2796 20.6896 12.5023C20.6927 12.7204 20.7495 12.6974 20.9907 12.3871C21.1535 12.1751 21.3946 11.9862 21.5252 11.9647C21.6557 11.9432 21.7279 11.9954 21.6849 12.0799C21.6419 12.1644 21.5037 12.2335 21.3777 12.2335C21.2456 12.2335 21.1873 12.3165 21.241 12.4255C21.3117 12.573 21.3731 12.576 21.5098 12.4347C21.6066 12.3349 21.7894 12.298 21.9153 12.3549C22.0919 12.4332 22.1104 12.404 21.9952 12.2304C21.9138 12.1045 22.0689 12.1583 22.3408 12.3487C22.6603 12.5714 22.8384 12.6252 22.843 12.5023C22.8461 12.3963 22.5865 12.126 22.267 11.9002C21.9476 11.676 21.4084 11.4164 21.0705 11.3258C20.7326 11.2351 20.2488 11.1645 19.9954 11.1706C19.7419 11.1752 19.275 11.2781 18.9586 11.3995ZM18.4026 18.9979C18.3043 19.1699 18.2951 19.2667 18.3826 19.2221C18.4671 19.1791 18.5347 19.1976 18.5316 19.2605C18.5285 19.3235 18.8234 19.5094 19.1844 19.6737C19.7235 19.9164 19.9646 19.944 20.5222 19.8273C20.8954 19.7474 21.2241 19.5969 21.2518 19.4909C21.2886 19.3481 21.1919 19.3327 20.8785 19.431C20.6466 19.5047 20.2488 19.5416 19.9954 19.514C19.7419 19.4863 19.3963 19.4433 19.2274 19.4187C19.0584 19.3957 18.8434 19.2221 18.7482 19.0363C18.5807 18.7045 18.5731 18.703 18.4026 18.9979ZM17.653 21.8532C17.4641 21.8839 17.3428 21.9792 17.3842 22.0636C17.4272 22.1481 17.3581 22.2172 17.2306 22.2172C17.1047 22.2172 17.0002 22.2864 17.0002 22.3708C17.0002 22.4553 17.0694 22.4891 17.1538 22.4476C17.2383 22.4046 17.3428 22.4738 17.3842 22.6012C17.4272 22.7272 17.5486 22.8301 17.653 22.8301C17.759 22.8286 17.8527 22.7088 17.8635 22.5613C17.8727 22.4138 17.8865 22.1896 17.8942 22.0636C17.9065 21.8578 17.9356 21.8578 18.1553 22.0636C18.3191 22.2172 18.3729 22.4348 18.3166 22.7164C18.2674 22.953 18.2966 23.1388 18.3826 23.1388C18.4671 23.1388 18.5362 23.0344 18.5362 22.9084C18.5362 22.7809 18.6053 22.7118 18.6898 22.7548C18.7922 22.806 18.7922 22.7292 18.6898 22.5244C18.6053 22.3555 18.5362 22.1819 18.5362 22.1404C18.5362 22.0974 18.6744 22.0636 18.8434 22.0636C19.0124 22.0636 19.1506 21.9945 19.1506 21.9101C19.1506 21.8256 18.8925 21.7657 18.5746 21.7764C18.2582 21.7887 17.8435 21.8225 17.653 21.8532ZM28.6167 26.5963C28.5645 26.7222 28.4186 26.8267 28.2926 26.8267C28.1651 26.8267 28.0592 26.8773 28.0561 26.9419C28.0545 27.0048 28.1743 27.1753 28.3249 27.3212C28.4769 27.4672 28.6858 27.5885 28.7918 27.59C28.9055 27.5931 28.9899 27.3796 28.9992 27.0663C29.0084 26.7744 28.9469 26.4995 28.8625 26.4519C28.7795 26.4058 28.6689 26.4703 28.6167 26.5963ZM28.2281 27.7083C28.222 27.8988 28.0776 28.1414 27.9086 28.2459C27.7397 28.3519 27.6014 28.5254 27.6014 28.6299C27.6014 28.7466 27.8119 28.8219 28.139 28.8219C28.523 28.8219 28.7211 28.7343 28.8302 28.5147C28.9147 28.3457 28.9838 28.1046 28.9838 27.9771C28.9838 27.8496 28.8471 27.7467 28.6766 27.7467C28.5076 27.7467 28.3402 27.6607 28.3049 27.5547C28.2696 27.4503 28.2342 27.5194 28.2281 27.7083Z" fill="black"/>
</svg>
