<svg width="40" height="40" viewBox="0 0 40 40" fill="none" xmlns="http://www.w3.org/2000/svg">
<rect width="40" height="40" rx="5" fill="#818081"/>
<path fill-rule="evenodd" clip-rule="evenodd" d="M10.9112 11.2496C10.816 11.4165 10.4372 11.5763 10.0261 11.6212C9.6312 11.6642 9.24702 11.7037 9.17162 11.7091C9.09623 11.7145 8.81258 12.0574 8.5433 12.4685L8.05142 13.2189C7.95448 20.3351 8.00475 22.2846 8.11784 22.6706C8.22017 23.0153 8.53074 23.5215 8.80541 23.7926C9.08187 24.0637 9.6312 24.3994 10.0261 24.5394C10.7119 24.7818 10.7442 24.8284 10.7568 25.5716L10.7694 26.3508C12.4604 26.4459 12.6471 26.3741 13.7422 25.5932L14.945 24.7351L14.9629 20.5164C13.1695 20.5253 12.8177 20.4428 12.5897 20.2076C12.4191 20.0317 12.2755 19.766 12.2719 19.6188C12.2683 19.4698 12.3617 19.249 12.482 19.1251C12.6023 19.0012 13.069 18.8953 13.5178 18.8899C13.9666 18.8845 14.6506 18.8235 15.0383 18.7553C15.4243 18.6871 15.7672 18.5506 15.8013 18.4519C15.8336 18.3532 15.7187 18.2634 15.5464 18.2544C15.374 18.2455 15.1784 18.3262 15.1119 18.4339C15.0258 18.5758 14.9252 18.574 14.7529 18.4232C14.6219 18.3101 14.3113 18.188 14.0653 18.1539C13.7099 18.1054 13.6165 17.9887 13.6165 17.5992C13.6165 17.1917 13.5393 17.1073 13.1677 17.1109C12.92 17.1145 12.5789 16.9727 12.4102 16.7967C12.2396 16.6208 12.0942 16.3964 12.0888 16.2977C12.0834 16.1989 12.2235 15.9835 12.3994 15.8201C12.6525 15.585 13.2431 15.5006 15.2322 15.418C16.6145 15.3606 17.9466 15.3175 18.1943 15.3211C18.4402 15.3265 20.0972 15.33 21.8745 15.3318C24.3734 15.3354 25.1327 15.2816 25.2279 15.0985C25.2961 14.9674 25.2961 14.7915 25.2279 14.7071C25.1615 14.6209 25.2063 14.5007 25.3284 14.4378C25.4882 14.3553 25.5133 14.0824 25.4182 13.4738C25.3356 12.9478 25.3536 12.5995 25.4649 12.56C25.5636 12.5223 25.3607 12.2333 25.0161 11.9156C24.6696 11.596 24.0646 11.2531 23.6697 11.1508C23.2747 11.0503 22.264 11.009 21.4257 11.0629C20.5855 11.1149 19.7256 11.1831 19.512 11.2154C19.2983 11.246 19.0632 11.3321 18.9896 11.4057C18.9142 11.4793 18.7849 11.5404 18.7023 11.5404C18.6198 11.5404 18.5928 11.4596 18.6431 11.3609C18.6916 11.2621 18.6108 11.1813 18.4636 11.1813C18.3146 11.1813 18.153 11.3016 18.1045 11.4506C18.0381 11.6517 17.8658 11.6894 17.4313 11.6014C17.11 11.5368 16.7869 11.395 16.7133 11.2873C16.6199 11.1508 16.5373 11.1652 16.444 11.3357C16.3309 11.5386 16.2357 11.5368 15.8605 11.3196C15.6128 11.1778 15.1281 11.0395 14.7834 11.0144C14.4028 10.9857 14.0312 11.079 13.8409 11.2531C13.6506 11.4273 13.5088 11.4632 13.4819 11.3447C13.4568 11.237 12.9056 11.1059 12.2576 11.0521C11.2864 10.9731 11.0476 11.0072 10.9112 11.2496ZM21.607 18.1682C18.846 18.2598 18.4061 18.3173 17.9789 18.6332C17.7132 18.8307 17.39 19.2346 17.2608 19.5308C17.092 19.9204 17.0292 21.2129 17.0292 24.2109C17.0292 28.3345 17.031 28.356 17.478 29.0113C17.7329 29.3829 18.2176 29.785 18.6 29.9394C19.0991 30.1422 20.0003 30.2122 22.1007 30.2158L24.9281 30.2212C26.3876 31.3271 26.8525 31.6484 26.9028 31.6484C26.9513 31.6484 26.9513 31.4868 26.9028 31.2894C26.843 31.05 26.9028 30.9303 27.0823 30.9303C27.2295 30.9303 27.3516 31.0111 27.3516 31.1098C27.3516 31.2086 27.6137 31.1511 27.9351 30.9824C28.2546 30.8136 28.5777 30.6934 28.6531 30.7131C28.7267 30.7328 28.7878 30.6287 28.7878 30.4815C28.7878 30.3325 29.0086 30.1584 29.2814 30.0938C29.5525 30.0273 30.0767 29.785 30.4483 29.5552C30.8181 29.3236 31.2346 28.9125 31.3729 28.6414C31.5201 28.3506 31.5811 27.9252 31.5165 27.6092C31.4393 27.2161 31.468 27.1066 31.6242 27.2053C31.7552 27.2861 31.8396 27.234 31.8396 27.0706C31.8396 26.9216 31.7588 26.8014 31.6601 26.8014C31.5614 26.8014 31.4806 26.6793 31.4806 26.5321C31.4806 26.3831 31.5614 26.2628 31.6601 26.2628C31.7588 26.2628 31.8396 25.9792 31.8396 25.6345C31.8396 25.1247 31.7624 24.99 31.4357 24.9254C31.2131 24.8823 30.6278 24.7943 30.1342 24.7297L29.2366 24.613C29.1468 23.4569 29.1181 23.0799 29.1127 23.0314C29.1073 22.9812 29.1127 22.2739 29.1253 21.4606C29.1396 20.4069 29.2114 19.9796 29.3712 19.9796C29.4933 19.9796 29.5956 19.8575 29.5956 19.7103C29.5956 19.5613 29.5346 19.4411 29.461 19.4411C29.3856 19.4411 29.3263 19.3603 29.3263 19.2615C29.3263 19.1628 29.5076 19.0856 29.7302 19.0892C29.9511 19.0928 30.2347 18.9725 30.3586 18.8199C30.5453 18.5901 30.5148 18.5058 30.179 18.3208C29.917 18.1772 28.8883 18.0911 27.2619 18.0803C25.8795 18.0695 23.334 18.109 21.607 18.1682ZM10.6545 27.1155C10.6545 27.3058 10.8035 27.4405 11.0332 27.4602C11.2433 27.4764 11.5862 27.3363 11.798 27.1496L12.1822 26.8085C10.8106 26.8014 10.6563 26.8642 10.6545 27.1155Z" fill="black"/>
<path fill-rule="evenodd" clip-rule="evenodd" d="M10.1248 11.2029C9.78368 11.2962 9.52158 11.4506 9.54133 11.5457C9.56108 11.6409 9.76035 11.6804 9.98116 11.6337C10.2038 11.5852 10.4874 11.544 10.6095 11.544C10.7333 11.5422 10.8572 11.4201 10.8823 11.2711C10.9093 11.1239 10.8895 11.009 10.8375 11.018C10.7872 11.0269 10.4659 11.1095 10.1248 11.2029ZM15.8371 11.3142C16.2069 11.5906 16.2805 11.596 16.4205 11.3608C16.5336 11.1688 16.618 11.1508 16.7132 11.298C16.7886 11.4111 17.1135 11.5332 17.4384 11.5673C17.8262 11.6086 18.0829 11.5386 18.1888 11.3608C18.2965 11.1777 18.4671 11.1346 18.7202 11.2262C18.95 11.3088 19.0577 11.2926 19.002 11.1813C18.9518 11.0808 18.1493 11.0018 17.162 11C15.4511 11 15.4224 11.0072 15.8371 11.3142ZM25.3822 13.2907C25.4504 13.6605 25.5653 14.2062 25.6335 14.5024C25.7556 15.023 25.7502 15.0284 25.4648 14.682C25.2547 14.4288 25.1793 14.4019 25.2045 14.5922C25.2224 14.7412 25.2296 14.962 25.217 15.0859C25.2038 15.2355 24.8227 15.3198 24.0735 15.339C23.3572 15.3569 23.1795 15.3946 23.5798 15.4431C23.9263 15.4862 24.612 15.47 25.1057 15.409L26.0033 15.2977C26.0805 14.1254 26.0213 13.5223 25.9189 13.2009C25.8184 12.8796 25.6263 12.6175 25.4953 12.6175C25.314 12.6175 25.287 12.7862 25.3822 13.2907ZM17.4761 15.3103C17.1458 15.4162 17.3343 15.4611 18.1942 15.4772C18.8369 15.4898 19.3216 15.4682 19.2713 15.4288C19.2228 15.3893 18.8997 15.3157 18.5532 15.2636C18.2086 15.2097 17.7239 15.2331 17.4761 15.3103ZM13.5931 17.3299C13.5356 17.4537 13.5374 17.6961 13.5985 17.8684C13.6595 18.0444 13.8857 18.1808 14.1101 18.179C14.3327 18.179 14.6199 18.2795 14.7474 18.4034C14.9341 18.5883 15.0041 18.5865 15.1064 18.3998C15.1765 18.2724 15.3129 18.1808 15.4116 18.197C15.5104 18.2131 15.6719 18.2167 15.7707 18.2077C15.8694 18.1988 16.1333 17.9474 16.3541 17.6476L16.758 17.1055C14.1801 17.1055 13.6649 17.1755 13.5931 17.3299ZM20.528 18.1377C21.3681 18.17 22.6606 18.17 23.4003 18.1359C24.1417 18.1036 23.4541 18.0749 21.8744 18.0767C20.2946 18.0767 19.6896 18.1036 20.528 18.1377ZM29.9922 18.3172C29.9312 18.3908 29.9186 18.5524 29.9635 18.6763C30.0263 18.8558 30.1053 18.8558 30.3567 18.6763C30.6277 18.4824 30.6403 18.4896 30.4482 18.7212C30.3262 18.8702 30.2561 19.0317 30.2938 19.0802C30.3297 19.1305 30.1879 19.1394 29.9779 19.1035C29.7661 19.0658 29.5147 19.1466 29.416 19.2831C29.2885 19.4626 29.2993 19.4931 29.4609 19.3944C29.6135 19.3028 29.6709 19.3746 29.6386 19.6188C29.6153 19.818 29.4932 19.9796 29.3693 19.9778C29.2113 19.9778 29.1395 20.4051 29.1252 21.4588C29.1126 22.2739 29.1072 22.9812 29.1126 23.0296C29.118 23.0799 29.1467 23.4515 29.179 23.859L29.2347 24.5968C31.1825 24.9074 31.809 25.0995 31.8808 25.2252C31.9544 25.3508 32.0065 24.3635 31.9993 23.0296C31.9903 21.6976 31.9095 20.3027 31.8216 19.9329C31.7264 19.5416 31.4338 19.0712 31.1196 18.8109C30.7606 18.5105 30.4763 18.4046 30.2669 18.4932C30.0461 18.5847 29.9922 18.5596 30.082 18.4034C30.152 18.2813 30.1861 18.1826 30.1556 18.1826C30.1269 18.1826 30.0533 18.2436 29.9922 18.3172ZM10.6544 26.5752C10.6544 26.7188 10.929 26.8013 11.4173 26.8031C11.8374 26.8049 12.3239 26.7044 12.498 26.5787C12.7673 26.3849 12.6542 26.3507 11.7351 26.3507C10.9901 26.3507 10.6544 26.4208 10.6544 26.5752ZM27.7895 31.0057C27.4 31.2104 27.0194 31.4581 26.9458 31.5568C26.8722 31.6556 27.172 32.0774 27.619 32.4993C28.0642 32.9194 28.5076 33.2623 28.6063 33.2623C28.7069 33.2623 28.793 32.7147 28.8038 32.0164C28.8146 31.3306 28.75 30.74 28.6602 30.7023C28.5722 30.6646 28.1809 30.801 27.7895 31.0057Z" fill="black"/>
<path d="M13.9899 12.7521C13.9379 12.8257 13.9953 13.0986 14.1156 13.3553C14.2844 13.7197 14.4746 13.831 14.9611 13.8526C15.3076 13.8687 15.699 13.9801 15.8318 14.1021C16.0275 14.2816 16.0508 14.2565 15.9521 13.9639C15.8372 13.6246 15.8462 13.6228 16.1137 13.919C16.2752 14.0967 16.4368 14.1542 16.4871 14.0537C16.5373 13.9549 17.1423 13.8741 17.8335 13.8741H19.0901V12.6175C15.374 12.6175 14.7619 12.6785 14.7062 12.8419C14.647 13.0214 14.629 13.0214 14.6165 12.8419C14.6093 12.718 14.4854 12.6175 14.3418 12.6175C14.1982 12.6175 14.0402 12.6785 13.9899 12.7521ZM21.8026 23.7926C21.6124 24.1247 21.6142 24.2199 21.8116 24.3276C21.9445 24.4012 21.9714 24.4586 21.8727 24.455C21.7739 24.4514 21.8152 24.5789 21.9624 24.7351C22.1114 24.8913 22.4148 25.0169 22.6356 25.0115C22.8582 25.008 23.0377 24.9433 23.0359 24.8697C23.0341 24.7961 23.2765 24.6741 23.5745 24.6004C23.8725 24.5268 24.1167 24.385 24.1167 24.2863C24.1167 24.1876 24.0359 24.1068 23.9371 24.1068C23.8384 24.1068 23.7576 23.9865 23.7576 23.8375C23.7576 23.6885 23.8994 23.5377 24.0718 23.5C24.2459 23.4605 23.8581 23.421 23.2101 23.4102C22.1689 23.3905 22.0091 23.4354 21.8026 23.7926ZM24.9694 23.4928C25.0932 23.5341 25.1938 23.7298 25.1938 23.9272C25.1938 24.2073 25.3141 24.2863 25.7323 24.2863C26.1219 24.2863 26.296 24.1858 26.3607 23.9272C26.4235 23.6795 26.6317 23.5503 27.0339 23.5072C27.3552 23.4731 26.971 23.439 26.1811 23.4318C25.3912 23.4228 24.8473 23.4515 24.9694 23.4928ZM30.6691 28.1765C30.5884 28.2411 30.5345 28.444 30.5506 28.6253C30.5704 28.8497 30.4735 28.9412 30.2419 28.9125C30.0552 28.8892 29.8128 28.9305 29.7033 29.0023C29.5938 29.0741 29.5023 29.2141 29.5023 29.3128C29.5023 29.4116 29.583 29.4924 29.6818 29.4924C29.7805 29.4924 29.8631 29.3918 29.8631 29.268C29.8649 29.1441 30.0444 29.0436 30.2616 29.0436C30.5147 29.0436 30.6835 28.9143 30.7302 28.6845C30.7697 28.4871 30.8935 28.2662 31.0048 28.1944C31.1425 28.1059 31.1455 28.061 31.0138 28.0598C30.9061 28.058 30.7517 28.1101 30.6691 28.1765Z" fill="black"/>
</svg>
