<svg width="112" height="16" viewBox="0 0 112 16" fill="none" xmlns="http://www.w3.org/2000/svg">
<path d="M7.61607 1.04904e-05V2.49601H3.10407V11.424H6.65188e-05V1.04904e-05H7.61607ZM13.6852 2.41601C14.6665 2.41601 15.4345 2.81068 15.9892 3.60001C16.5439 4.37868 16.8212 5.50401 16.8212 6.97601C16.8212 7.97868 16.6772 8.82668 16.3892 9.52001C16.1119 10.2027 15.7279 10.72 15.2372 11.072C14.7572 11.4133 14.2079 11.584 13.5892 11.584C13.1732 11.584 12.8212 11.5307 12.5332 11.424C12.2452 11.3173 12.0052 11.1893 11.8132 11.04C11.6212 10.88 11.4612 10.72 11.3332 10.56H11.2372C11.2585 10.7627 11.2799 10.9813 11.3012 11.216C11.3225 11.4507 11.3332 11.7227 11.3332 12.032V15.264H8.27719V2.57601H10.7572L11.1892 3.69601H11.3332C11.4825 3.46134 11.6585 3.24801 11.8612 3.05601C12.0745 2.86401 12.3305 2.70934 12.6292 2.59201C12.9279 2.47468 13.2799 2.41601 13.6852 2.41601ZM12.5332 4.81601C12.2345 4.81601 11.9999 4.89068 11.8292 5.04001C11.6585 5.17868 11.5359 5.38668 11.4612 5.66401C11.3865 5.94134 11.3439 6.29334 11.3332 6.72001V6.96001C11.3332 7.42934 11.3652 7.82401 11.4292 8.14401C11.5039 8.46401 11.6319 8.70934 11.8132 8.88001C11.9945 9.04001 12.2399 9.12001 12.5492 9.12001C12.8052 9.12001 13.0185 9.05068 13.1892 8.91201C13.3705 8.76268 13.5039 8.52801 13.5892 8.20801C13.6745 7.88801 13.7172 7.46668 13.7172 6.94401C13.7172 6.16534 13.6159 5.61601 13.4132 5.29601C13.2105 4.97601 12.9172 4.81601 12.5332 4.81601ZM17.3302 2.57601H20.5462L22.0502 7.64801C22.0715 7.72268 22.0929 7.81334 22.1142 7.92001C22.1355 8.02668 22.1515 8.13868 22.1622 8.25601C22.1835 8.37334 22.1942 8.49068 22.1942 8.60801H22.2582C22.2795 8.39468 22.3062 8.21334 22.3382 8.06401C22.3809 7.90401 22.4182 7.77068 22.4502 7.66401L23.9862 2.57601H27.1062L23.6022 11.984C23.3355 12.6987 23.0209 13.3013 22.6582 13.792C22.3062 14.2827 21.8689 14.6507 21.3462 14.896C20.8235 15.1413 20.1729 15.264 19.3942 15.264C19.1169 15.264 18.8769 15.248 18.6742 15.216C18.4715 15.1947 18.2955 15.168 18.1462 15.136V12.736C18.2635 12.7573 18.4022 12.7787 18.5622 12.8C18.7329 12.8213 18.9089 12.832 19.0902 12.832C19.4315 12.832 19.7035 12.7627 19.9062 12.624C20.1195 12.4853 20.2955 12.304 20.4342 12.08C20.5729 11.8667 20.6902 11.632 20.7862 11.376L20.8182 11.296L17.3302 2.57601ZM36.5678 2.57601V11.424H33.5118V4.84801H31.2238V11.424H28.1678V2.57601H36.5678ZM47.0834 2.57601V11.424H44.0274V4.84801H41.7394V11.424H38.6834V2.57601H47.0834ZM51.9831 6.01601C51.9831 6.19734 51.9777 6.38934 51.9671 6.59201C51.9671 6.78401 51.9617 6.97601 51.9511 7.16801C51.9404 7.36001 51.9244 7.54668 51.9031 7.72801C51.8924 7.90934 51.8817 8.08001 51.8711 8.24001L55.2151 2.57601H58.5431V11.424H55.7591V8.22401C55.7591 7.94668 55.7591 7.65868 55.7591 7.36001C55.7697 7.06134 55.7857 6.77334 55.8071 6.49601C55.8284 6.20801 55.8497 5.95201 55.8711 5.72801L52.4951 11.424H49.1991V2.57601H51.9831V6.01601ZM66.0602 2.41601C67.0415 2.41601 67.8095 2.81068 68.3642 3.60001C68.9189 4.37868 69.1962 5.50401 69.1962 6.97601C69.1962 7.97868 69.0522 8.82668 68.7642 9.52001C68.4869 10.2027 68.1029 10.72 67.6122 11.072C67.1322 11.4133 66.5829 11.584 65.9642 11.584C65.5482 11.584 65.1962 11.5307 64.9082 11.424C64.6202 11.3173 64.3802 11.1893 64.1882 11.04C63.9962 10.88 63.8362 10.72 63.7082 10.56H63.6122C63.6335 10.7627 63.6549 10.9813 63.6762 11.216C63.6975 11.4507 63.7082 11.7227 63.7082 12.032V15.264H60.6522V2.57601H63.1322L63.5642 3.69601H63.7082C63.8575 3.46134 64.0335 3.24801 64.2362 3.05601C64.4495 2.86401 64.7055 2.70934 65.0042 2.59201C65.3029 2.47468 65.6549 2.41601 66.0602 2.41601ZM64.9082 4.81601C64.6095 4.81601 64.3749 4.89068 64.2042 5.04001C64.0335 5.17868 63.9109 5.38668 63.8362 5.66401C63.7615 5.94134 63.7189 6.29334 63.7082 6.72001V6.96001C63.7082 7.42934 63.7402 7.82401 63.8042 8.14401C63.8789 8.46401 64.0069 8.70934 64.1882 8.88001C64.3695 9.04001 64.6149 9.12001 64.9242 9.12001C65.1802 9.12001 65.3935 9.05068 65.5642 8.91201C65.7455 8.76268 65.8789 8.52801 65.9642 8.20801C66.0495 7.88801 66.0922 7.46668 66.0922 6.94401C66.0922 6.16534 65.9909 5.61601 65.7882 5.29601C65.5855 4.97601 65.2922 4.81601 64.9082 4.81601ZM79.3814 6.97601C79.3814 7.71201 79.2801 8.36801 79.0774 8.94401C78.8748 9.52001 78.5814 10.0053 78.1974 10.4C77.8134 10.784 77.3494 11.0773 76.8054 11.28C76.2614 11.4827 75.6428 11.584 74.9494 11.584C74.3094 11.584 73.7174 11.4827 73.1734 11.28C72.6401 11.0773 72.1761 10.784 71.7814 10.4C71.3974 10.0053 71.0934 9.52001 70.8694 8.94401C70.6561 8.36801 70.5494 7.71201 70.5494 6.97601C70.5494 5.99468 70.7254 5.16801 71.0774 4.49601C71.4401 3.81334 71.9521 3.29601 72.6134 2.94401C73.2748 2.59201 74.0694 2.41601 74.9974 2.41601C75.8508 2.41601 76.6028 2.59201 77.2534 2.94401C77.9148 3.29601 78.4321 3.81334 78.8054 4.49601C79.1894 5.16801 79.3814 5.99468 79.3814 6.97601ZM73.6534 6.97601C73.6534 7.47734 73.6961 7.90401 73.7814 8.25601C73.8668 8.60801 74.0054 8.87468 74.1974 9.05601C74.4001 9.22668 74.6614 9.31201 74.9814 9.31201C75.3014 9.31201 75.5521 9.22668 75.7334 9.05601C75.9254 8.87468 76.0641 8.60801 76.1494 8.25601C76.2348 7.90401 76.2774 7.47734 76.2774 6.97601C76.2774 6.47468 76.2348 6.05334 76.1494 5.71201C76.0641 5.37068 75.9254 5.11468 75.7334 4.94401C75.5414 4.77334 75.2854 4.68801 74.9654 4.68801C74.5068 4.68801 74.1708 4.88001 73.9574 5.26401C73.7548 5.64801 73.6534 6.21868 73.6534 6.97601ZM89.3129 4.86401C89.3129 5.32268 89.1743 5.73334 88.8969 6.09601C88.6196 6.45868 88.1929 6.68801 87.6169 6.78401V6.84801C88.2463 6.92268 88.7316 7.14134 89.0729 7.50401C89.4143 7.86668 89.5849 8.33068 89.5849 8.89601C89.5849 9.22668 89.5209 9.54668 89.3929 9.85601C89.2649 10.1547 89.0463 10.4213 88.7369 10.656C88.4276 10.8907 88.0063 11.0773 87.4729 11.216C86.9396 11.3547 86.2676 11.424 85.4569 11.424H81.1209V2.57601H85.4729C86.3689 2.57601 87.0996 2.66668 87.6649 2.84801C88.2303 3.01868 88.6463 3.27468 88.9129 3.61601C89.1796 3.94668 89.3129 4.36268 89.3129 4.86401ZM86.4809 8.59201C86.4809 8.36801 86.4063 8.18668 86.2569 8.04801C86.1076 7.89868 85.8196 7.82401 85.3929 7.82401H84.1769V9.42401H85.3609C85.7663 9.42401 86.0543 9.34934 86.2249 9.20001C86.3956 9.04001 86.4809 8.83734 86.4809 8.59201ZM86.2729 5.26401C86.2729 5.04001 86.1983 4.86934 86.0489 4.75201C85.9103 4.63468 85.7023 4.57601 85.4249 4.57601H84.1769V5.90401H85.3129C85.6329 5.90401 85.8729 5.84534 86.0329 5.72801C86.1929 5.60001 86.2729 5.44534 86.2729 5.26401ZM97.3754 2.57601H100.751L97.4394 6.81601L101.007 11.424H97.5194L94.2394 6.92801V11.424H91.1834V2.57601H94.2394V6.86401L97.3754 2.57601ZM104.78 6.01601C104.78 6.19734 104.775 6.38934 104.764 6.59201C104.764 6.78401 104.759 6.97601 104.748 7.16801C104.737 7.36001 104.721 7.54668 104.7 7.72801C104.689 7.90934 104.679 8.08001 104.668 8.24001L108.012 2.57601H111.34V11.424H108.556V8.22401C108.556 7.94668 108.556 7.65868 108.556 7.36001C108.567 7.06134 108.583 6.77334 108.604 6.49601C108.625 6.20801 108.647 5.95201 108.668 5.72801L105.292 11.424H101.996V2.57601H104.78V6.01601Z" fill="#C3C2C3"/>
</svg>
